<svg xmlns="http://www.w3.org/2000/svg" width="340" height="500" version="1.0" viewBox="0 0 255 375"><defs><clipPath id="a"><path d="M88.246 0h78.75v27h-78.75Zm0 0"/></clipPath><clipPath id="b"><path d="M88.246 10h78.75v28h-78.75Zm0 0"/></clipPath><clipPath id="c"><path d="M88.246 21h78.75v27h-78.75Zm0 0"/></clipPath><clipPath id="d"><path d="M88.246 31h78.75v28h-78.75Zm0 0"/></clipPath><clipPath id="e"><path d="M88.246 42h78.75v27h-78.75Zm0 0"/></clipPath><clipPath id="f"><path d="M88.246 52h78.75v28h-78.75Zm0 0"/></clipPath><clipPath id="g"><path d="M88.246 63h78.75v27h-78.75Zm0 0"/></clipPath><clipPath id="h"><path d="M88.246 73h78.75v28h-78.75Zm0 0"/></clipPath><clipPath id="i"><path d="M88.246 84h78.75v28h-78.75Zm0 0"/></clipPath><clipPath id="j"><path d="M88.246 94h78.75v28h-78.75Zm0 0"/></clipPath><clipPath id="k"><path d="M88.246 105h78.75v28h-78.75Zm0 0"/></clipPath><clipPath id="l"><path d="M88.246 115h78.75v28h-78.75Zm0 0"/></clipPath><clipPath id="m"><path d="M88.246 126h78.75v27h-78.75Zm0 0"/></clipPath><clipPath id="n"><path d="M172.195 54.129h67.5V78h-67.5Zm0 0"/></clipPath><clipPath id="o"><path d="M172.195 63h67.5v24h-67.5Zm0 0"/></clipPath><clipPath id="p"><path d="M172.195 72h67.5v24h-67.5Zm0 0"/></clipPath><clipPath id="q"><path d="M172.195 81h67.5v24h-67.5Zm0 0"/></clipPath><clipPath id="r"><path d="M172.195 90h67.5v24h-67.5Zm0 0"/></clipPath><clipPath id="s"><path d="M172.195 99h67.5v24h-67.5Zm0 0"/></clipPath><clipPath id="t"><path d="M172.195 108h67.5v24h-67.5Zm0 0"/></clipPath><clipPath id="u"><path d="M172.195 117h67.5v24h-67.5Zm0 0"/></clipPath><clipPath id="v"><path d="M172.195 126h67.5v24h-67.5Zm0 0"/></clipPath><clipPath id="w"><path d="M172.195 135h67.5v24h-67.5Zm0 0"/></clipPath><clipPath id="x"><path d="M172.195 144h67.5v24h-67.5Zm0 0"/></clipPath><clipPath id="y"><path d="M172.195 153h67.5v24h-67.5Zm0 0"/></clipPath><clipPath id="z"><path d="M172.195 162h67.5v23.379h-67.5Zm0 0"/></clipPath><clipPath id="A"><path d="M15.613 54.129H83V78H15.613Zm0 0"/></clipPath><clipPath id="B"><path d="M15.613 63H83v24H15.613Zm0 0"/></clipPath><clipPath id="C"><path d="M15.613 72H83v24H15.613Zm0 0"/></clipPath><clipPath id="D"><path d="M15.613 81H83v24H15.613Zm0 0"/></clipPath><clipPath id="E"><path d="M15.613 90H83v24H15.613Zm0 0"/></clipPath><clipPath id="F"><path d="M15.613 99H83v24H15.613Zm0 0"/></clipPath><clipPath id="G"><path d="M15.613 108H83v24H15.613Zm0 0"/></clipPath><clipPath id="H"><path d="M15.613 117H83v24H15.613Zm0 0"/></clipPath><clipPath id="I"><path d="M15.613 126H83v24H15.613Zm0 0"/></clipPath><clipPath id="J"><path d="M15.613 135H83v24H15.613Zm0 0"/></clipPath><clipPath id="K"><path d="M15.613 144H83v24H15.613Zm0 0"/></clipPath><clipPath id="L"><path d="M15.613 153H83v24H15.613Zm0 0"/></clipPath><clipPath id="M"><path d="M15.613 162H83v23.379H15.613Zm0 0"/></clipPath><clipPath id="N"><path d="M.074 240H255v12H.074Zm0 0"/></clipPath><clipPath id="O"><path d="M102 92.617h51V174h-51Zm0 0"/></clipPath><clipPath id="P"><path d="M92.305 91.867h70.5v129h-70.5Zm0 0"/></clipPath></defs><g clip-path="url(#a)"><path fill="#ef4444" d="M127.5 0v2.984L88.262 23.227v3.55L127.5 6.531l39.238 20.246v-6.535Zm0 0"/></g><g clip-path="url(#b)"><path fill="#ef4444" d="M127.5 13.52 88.262 33.762v3.547L127.5 17.066l39.238 20.243v-6.532L127.5 10.535Zm0 0"/></g><g clip-path="url(#c)"><path fill="#ef4444" d="M127.5 24.05 88.262 44.298v3.547L127.5 27.598l39.238 20.246v-6.532L127.5 21.067Zm0 0"/></g><g clip-path="url(#d)"><path fill="#ef4444" d="M127.5 34.586 88.262 54.828v3.55L127.5 38.134l39.238 20.246v-6.535L127.5 31.602Zm0 0"/></g><g clip-path="url(#e)"><path fill="#ef4444" d="M127.5 45.121 88.262 65.363v3.547L127.5 48.668l39.238 20.242V62.38L127.5 42.137Zm0 0"/></g><g clip-path="url(#f)"><path fill="#ef4444" d="M127.5 55.652 88.262 75.898v3.547L127.5 59.2l39.238 20.246v-6.53L127.5 52.667Zm0 0"/></g><g clip-path="url(#g)"><path fill="#ef4444" d="M127.5 66.188 88.262 86.43v3.547L127.5 69.734l39.238 20.243v-6.528L127.5 63.203Zm0 0"/></g><g clip-path="url(#h)"><path fill="#ef4444" d="M127.5 76.719 88.262 96.965v3.547L127.5 80.27l39.238 20.242V93.98L127.5 73.738Zm0 0"/></g><g clip-path="url(#i)"><path fill="#ef4444" d="M127.5 87.254 88.262 107.5v3.547L127.5 90.805l39.238 20.242v-6.531L127.5 84.27Zm0 0"/></g><g clip-path="url(#j)"><path fill="#ef4444" d="M127.5 97.79 88.262 118.03v3.547l39.238-20.242 39.238 20.242v-6.527L127.5 94.805Zm0 0"/></g><g clip-path="url(#k)"><path fill="#ef4444" d="m127.5 108.32-39.238 20.246v3.547l39.238-20.242 39.238 20.242v-6.531L127.5 105.34Zm0 0"/></g><g clip-path="url(#l)"><path fill="#ef4444" d="m127.5 118.855-39.238 20.247v3.546l39.238-20.246 39.238 20.246v-6.53L127.5 115.87Zm0 0"/></g><g clip-path="url(#m)"><path fill="#ef4444" d="m127.5 129.39-39.238 20.243v3.547l39.238-20.243 39.238 20.243v-6.532L127.5 126.406Zm0 0"/></g><g clip-path="url(#n)"><path fill="#ef4444" d="M205.785 54.129v2.55l-33.582 17.329v3.035l33.582-17.324 33.586 17.324v-5.59Zm0 0"/></g><g clip-path="url(#o)"><path fill="#ef4444" d="m205.785 65.7-33.582 17.323v3.036l33.582-17.325 33.586 17.325v-5.59l-33.586-17.324Zm0 0"/></g><g clip-path="url(#p)"><path fill="#ef4444" d="m205.785 74.715-33.582 17.324v3.035l33.582-17.324 33.586 17.324v-5.59L205.785 72.16Zm0 0"/></g><g clip-path="url(#q)"><path fill="#ef4444" d="m205.785 83.727-33.582 17.328v3.035l33.582-17.324 33.586 17.324V98.5l-33.586-17.324Zm0 0"/></g><g clip-path="url(#r)"><path fill="#ef4444" d="m205.785 92.742-33.582 17.328v3.035l33.582-17.324 33.586 17.324v-5.59l-33.586-17.324Zm0 0"/></g><g clip-path="url(#s)"><path fill="#ef4444" d="m205.785 101.758-33.582 17.328v3.035l33.582-17.324 33.586 17.324v-5.59l-33.586-17.324Zm0 0"/></g><g clip-path="url(#t)"><path fill="#ef4444" d="m205.785 110.777-33.582 17.325v3.035l33.582-17.324 33.586 17.324v-5.59l-33.586-17.324Zm0 0"/></g><g clip-path="url(#u)"><path fill="#ef4444" d="m205.785 119.79-33.582 17.327v3.035l33.582-17.324 33.586 17.324v-5.59l-33.586-17.324Zm0 0"/></g><g clip-path="url(#v)"><path fill="#ef4444" d="m205.785 128.805-33.582 17.328v3.035l33.582-17.324 33.586 17.324v-5.59l-33.586-17.324Zm0 0"/></g><g clip-path="url(#w)"><path fill="#ef4444" d="m205.785 137.82-33.582 17.328v3.036l33.582-17.325 33.586 17.325v-5.59l-33.586-17.328Zm0 0"/></g><g clip-path="url(#x)"><path fill="#ef4444" d="m205.785 146.836-33.582 17.328v3.035l33.582-17.324 33.586 17.324v-5.59l-33.586-17.324Zm0 0"/></g><g clip-path="url(#y)"><path fill="#ef4444" d="m205.785 155.852-33.582 17.328v3.035l33.582-17.328 33.586 17.328v-5.59l-33.586-17.324Zm0 0"/></g><g clip-path="url(#z)"><path fill="#ef4444" d="m205.785 164.867-33.582 17.328v3.035l33.582-17.324 33.586 17.324v-5.59l-33.586-17.327Zm0 0"/></g><g clip-path="url(#A)"><path fill="#ef4444" d="M49.207 54.129v2.55L15.625 74.009v3.035l33.582-17.324 33.586 17.324v-5.59Zm0 0"/></g><g clip-path="url(#B)"><path fill="#ef4444" d="M49.207 65.7 15.625 83.022v3.036l33.582-17.325L82.793 86.06v-5.59L49.207 63.145Zm0 0"/></g><g clip-path="url(#C)"><path fill="#ef4444" d="M49.207 74.715 15.625 92.039v3.035L49.207 77.75l33.586 17.324v-5.59L49.207 72.16Zm0 0"/></g><g clip-path="url(#D)"><path fill="#ef4444" d="m49.207 83.727-33.582 17.328v3.035l33.582-17.324 33.586 17.324V98.5L49.207 81.176Zm0 0"/></g><g clip-path="url(#E)"><path fill="#ef4444" d="M49.207 92.742 15.625 110.07v3.035l33.582-17.324 33.586 17.324v-5.59L49.207 90.192Zm0 0"/></g><g clip-path="url(#F)"><path fill="#ef4444" d="m49.207 101.758-33.582 17.328v3.035l33.582-17.324 33.586 17.324v-5.59L49.207 99.207Zm0 0"/></g><g clip-path="url(#G)"><path fill="#ef4444" d="m49.207 110.777-33.582 17.325v3.035l33.582-17.324 33.586 17.324v-5.59l-33.586-17.324Zm0 0"/></g><g clip-path="url(#H)"><path fill="#ef4444" d="m49.207 119.79-33.582 17.327v3.035l33.582-17.324 33.586 17.324v-5.59l-33.586-17.324Zm0 0"/></g><g clip-path="url(#I)"><path fill="#ef4444" d="m49.207 128.805-33.582 17.328v3.035l33.582-17.324 33.586 17.324v-5.59l-33.586-17.324Zm0 0"/></g><g clip-path="url(#J)"><path fill="#ef4444" d="m49.207 137.82-33.582 17.328v3.036l33.582-17.325 33.586 17.325v-5.59l-33.586-17.328Zm0 0"/></g><g clip-path="url(#K)"><path fill="#ef4444" d="m49.207 146.836-33.582 17.328v3.035l33.582-17.324 33.586 17.324v-5.59l-33.586-17.324Zm0 0"/></g><g clip-path="url(#L)"><path fill="#ef4444" d="M49.207 155.852 15.625 173.18v3.035l33.582-17.328 33.586 17.328v-5.59l-33.586-17.324Zm0 0"/></g><g clip-path="url(#M)"><path fill="#ef4444" d="m49.207 164.867-33.582 17.328v3.035l33.582-17.324 33.586 17.324v-5.59l-33.586-17.327Zm0 0"/></g><path fill="#ef4444" d="m16.195 270.027 8.098 1.368a15.2 15.2 0 0 1 4.14 1.335 15.1 15.1 0 0 1 3.594 2.446 15.1 15.1 0 0 1 2.762 3.363 15.2 15.2 0 0 1 1.75 4.188q.575 2.122.527 4.32a15.2 15.2 0 0 1-.71 4.289 15.1 15.1 0 0 1-1.891 3.918 15.2 15.2 0 0 1-2.914 3.223l-6.328 5.234c-2.465 2.039-3.407 4.84-2.285 6.781l7.042 12.2c1.122 1.94 4.016 2.523 7.012 1.41l7.73-2.875a15 15 0 0 1 4.25-.914 15.1 15.1 0 0 1 4.333.32 15.23 15.23 0 0 1 7.535 4.14l.144.145a15 15 0 0 1 2.614 3.473 15.215 15.215 0 0 1 1.852 8.398 15.2 15.2 0 0 1-.915 4.246l-2.883 7.727c-1.113 2.992-.53 5.89 1.41 7.011l12.2 7.043c1.941 1.125 4.742.18 6.781-2.28l5.23-6.329a15.2 15.2 0 0 1 3.227-2.918 15.2 15.2 0 0 1 3.918-1.89 15.2 15.2 0 0 1 4.289-.712 15.2 15.2 0 0 1 4.316.528l.188.05q2.128.563 4.004 1.7a15.25 15.25 0 0 1 5.808 6.36 15 15 0 0 1 1.332 4.136l1.372 8.098c.53 3.152 2.484 5.367 4.726 5.367h14.086c2.246 0 4.195-2.219 4.73-5.367l1.368-8.098a15.3 15.3 0 0 1 1.332-4.137 15.25 15.25 0 0 1 9.813-8.059l.187-.05a15.2 15.2 0 0 1 4.316-.527q2.198.047 4.29.71a15 15 0 0 1 3.917 1.891 15 15 0 0 1 3.227 2.918l5.234 6.328c2.035 2.461 4.836 3.406 6.777 2.281l12.2-7.043c1.945-1.12 2.527-4.015 1.41-7.011l-2.875-7.73a15 15 0 0 1-.91-4.247q-.154-2.192.32-4.332a15.2 15.2 0 0 1 4.14-7.539l.145-.144a15.2 15.2 0 0 1 3.473-2.61 15 15 0 0 1 4.062-1.527 15.1 15.1 0 0 1 4.332-.32q2.19.152 4.246.914l7.73 2.87c2.993 1.118 5.892.536 7.013-1.41l7.047-12.199c1.12-1.941.175-4.738-2.286-6.777l-6.328-5.234a15 15 0 0 1-2.918-3.227 15.269 15.269 0 0 1-2.602-8.207 15.3 15.3 0 0 1 .583-4.504q.556-2.122 1.699-4.004a15.254 15.254 0 0 1 10.496-7.14l8.098-1.372c3.148-.53 5.363-2.484 5.363-4.726v-7.043h-49.496c0 1.16-.027 2.328-.09 3.5-1.762 34.316-29.27 61.824-63.582 63.586-38.535 1.976-70.676-28.965-70.676-67.086H10.828v7.043c0 2.242 2.215 4.195 5.367 4.73m0 0"/><g clip-path="url(#N)"><path fill="#fde047" d="M5.91 240.098h243.176a5.8 5.8 0 0 1 2.234.445q.528.216 1.008.539.479.316.883.727.41.406.726.882.323.48.54 1.008a5.843 5.843 0 0 1 .332 3.375 5.7 5.7 0 0 1-.332 1.094 5.7 5.7 0 0 1-.54 1.008q-.316.479-.726.883-.404.41-.883.726-.48.322-1.008.54a5.843 5.843 0 0 1-2.234.445H5.91a5.8 5.8 0 0 1-2.234-.446 5.7 5.7 0 0 1-1.008-.539 5.4 5.4 0 0 1-.883-.726 5.4 5.4 0 0 1-.726-.883 5.7 5.7 0 0 1-.54-1.008 5.913 5.913 0 0 1-.445-2.234 5.8 5.8 0 0 1 .446-2.235q.216-.526.539-1.008c.21-.316.453-.613.726-.882q.404-.41.883-.727.48-.322 1.008-.539a5.843 5.843 0 0 1 2.234-.445m0 0"/></g><path fill="#fde047" d="M244.215 233.48H10.78c0-53.855 37.801-98.882 88.32-109.996v53.684h56.794v-53.684c35.93 7.907 65.425 32.965 79.464 66.16a112 112 0 0 1 6.633 21.473 112 112 0 0 1 2.223 22.363m0 0"/><g clip-path="url(#O)"><path fill="#fde047" d="M102.59 92.68h49.816v81.164H102.59Zm0 0"/></g><g clip-path="url(#P)"><path fill="#ef4444" d="M161.984 144.2c.57-.856.192-1.555-.832-1.555H138.27c-1.028 0-1.528-.774-1.118-1.708l20.715-47.37c.41-.938-.09-1.704-1.113-1.704h-42.297c-1.027 0-2.086.805-2.36 1.79l-19.433 70.316c-.273.984.34 1.793 1.363 1.793h27.012c1.023 0 1.684.816 1.469 1.82l-11.254 52.32c-.223.996.066 1.121.629.266z"/></g></svg>