<svg xmlns="http://www.w3.org/2000/svg" viewBox="0 0 500 500"><ellipse cx="254" cy="332.81" rx="233.36" ry="134.73" style="fill:#f5f5f5"/><path d="M154.35 430.79a11.75 11.75 0 0 1-5.77-1.43L62.5 379.65a6 6 0 0 1 0-10.85l151.57-87.51a12.36 12.36 0 0 1 11.54 0L311.69 331a6 6 0 0 1 0 10.86l-151.57 87.5a11.75 11.75 0 0 1-5.77 1.43M335.8 415.7l-20.67-12a1.32 1.32 0 0 1 0-2.5l105.4-60.79a4.79 4.79 0 0 1 4.33 0l20.62 11.93a1.32 1.32 0 0 1 0 2.5L340.13 415.7a4.79 4.79 0 0 1-4.33 0" style="fill:#e0e0e0"/><path d="m349.27 297.94-65.74-38c-1.3-.75-1.3-2 0-2.71l65.74-38a5.25 5.25 0 0 1 4.7 0l65.74 38c1.29.75 1.29 2 0 2.71l-65.74 38a5.19 5.19 0 0 1-4.7 0" style="fill:#e6e6e6"/><path d="M407.06 237.77a74.8 74.8 0 0 1-3.64-26.66c.63-16.51 7.8-28.29 16.67-26.27 5.06 1.15 8 4.78.79 17.13-4.88 8.38-6.58 14.85-8.74 30.28Z" style="fill:#37474f"/><path d="m408.64 229.45-.14.05a.48.48 0 0 1-.57-.38c-4.7-22.25 5.72-36.27 9-40a.49.49 0 1 1 .73.64c-6.66 7.59-12.47 21.87-8.81 39.2a.48.48 0 0 1-.21.49" style="fill:#fff"/><path d="M420.13 212.53a6.8 6.8 0 0 0-2.65.32 8.24 8.24 0 0 0-3.8 2.73 6 6 0 0 0-.79 1.24 15.3 15.3 0 0 0-.82 4.44 5.3 5.3 0 0 1-1.19 2.91c-1.25 1.34-3.49 1.6-4.35 3.21a4.5 4.5 0 0 0-.42 1.57 10.2 10.2 0 0 0 .29 4.3c.42 1.53.81 3.07 1.27 4.6 1 3.38 2.41 6.69 2.75 10.23.06.56-.14 1.66.28 2s2.12.16 2.66.16a22.8 22.8 0 0 0 5.62-.76 11 11 0 0 0 5.65-3.17c1.14-1.35 2.05-3.66 1.06-5.29a5.4 5.4 0 0 1-.95-1.9 2.65 2.65 0 0 1 1.38-2.5 8.1 8.1 0 0 1 2.88-.86c2.43-.42 4.93-.92 6.93-2.36s3.35-4.07 2.55-6.4a14.3 14.3 0 0 1-.94-2.44c-.23-1.69 1.37-3.23 2.9-4a4 4 0 0 0 2.44-4.29 4.62 4.62 0 0 0-1.62-2.93c-2-1.89-5.43-2.12-8-1.33-1.84.57-3.46 1.71-5.31 2.24a5.67 5.67 0 0 1-3 .16 20 20 0 0 1-2.87-1.43 6.2 6.2 0 0 0-1.95-.45" style="fill:#455a64"/><path d="M409.47 242a.41.41 0 0 0 .43-.32c3.19-13.16 19.47-22.85 27.69-24.57a.43.43 0 0 0 .33-.5.42.42 0 0 0-.5-.32c-8.41 1.76-25.06 11.69-28.33 25.19a.42.42 0 0 0 .31.51Z" style="fill:#fff"/><path d="M430.75 228.43a.41.41 0 0 0 .12-.79c-.26-.12-6.61-2.88-12.26-.57a.43.43 0 0 0-.23.55.42.42 0 0 0 .55.23c5.32-2.18 11.54.52 11.6.55a.4.4 0 0 0 .22.03M416 230.52h-.16a.44.44 0 0 1-.23-.55 17.88 17.88 0 0 0 1-11.28.42.42 0 1 1 .8-.26c.07.21 1.63 5.26-1.06 11.86a.42.42 0 0 1-.35.23" style="fill:#fff"/><path d="M60.36 367.87a8.47 8.47 0 0 0 4 6.56l86.07 49.71a8.75 8.75 0 0 0 7.91 0l151.57-87.51a7.43 7.43 0 0 0 0-13.13l-86.11-49.71a8.75 8.75 0 0 0-7.91 0L64.32 361.3a8.47 8.47 0 0 0-3.96 6.57" style="fill:#37474f"/><path d="M154.35 416.53v8.55a8 8 0 0 1-3.95-.94l-86.08-49.71a7.4 7.4 0 0 1-.41-12.87c-1.77 1.27-1.63 3.13.41 4.31l86.08 49.71a8 8 0 0 0 3.95.95" style="fill:#263238"/><path d="M56.66 361.44c-2-1.18-1.94-3.18-1.94-5.7V236.85a8.75 8.75 0 0 1 4-6.85l151.57-87.51a8.48 8.48 0 0 1 7.66-.14c2 1.19 1.94 3.18 1.94 5.7V267a8.73 8.73 0 0 1-4 6.84L64.32 361.3a8.45 8.45 0 0 1-7.66.14" style="fill:#455a64"/><path d="M63.85 361.54a8.47 8.47 0 0 1-7.19-.1c-2-1.18-1.94-3.18-1.94-5.7V236.85a8 8 0 0 1 1.16-3.85l5.64 3.26a8.16 8.16 0 0 0-1.16 3.89V359c0 2.36 1.53 3.41 3.49 2.54" style="fill:#263238"/><path d="M60.36 240.13V359c0 2.52 1.77 3.54 4 2.28l151.57-87.51a8.73 8.73 0 0 0 4-6.84V148.05c0-2.52-1.77-3.54-4-2.28L64.32 233.28a8.73 8.73 0 0 0-3.96 6.85" style="fill:#37474f"/><path d="m64.32 365.87 86.07 49.7a8.75 8.75 0 0 0 7.91 0l151.57-87.51c2.18-1.26 2.18-3.3 0-4.56l-86.07-49.71a8.75 8.75 0 0 0-7.91 0L64.32 361.3c-2.19 1.26-2.19 3.31 0 4.57" style="fill:#455a64"/><path d="m66.44 237.84 146.14-84.35c1.31-.75 2.37-.14 2.37 1.37v109.46a5.24 5.24 0 0 1-2.37 4.11L66.44 352.78c-1.31.75-2.37.14-2.37-1.37V242a5.25 5.25 0 0 1 2.37-4.16" style="fill:#fde047"/><path d="m66.44 237.84 146.14-84.35c1.31-.75 2.37-.14 2.37 1.37v109.46a5.24 5.24 0 0 1-2.37 4.11L66.44 352.78c-1.31.75-2.37.14-2.37-1.37V242a5.25 5.25 0 0 1 2.37-4.16" style="fill:#fff;opacity:.6000000000000001"/><path d="M75.26 361.54 216 280.31a4.36 4.36 0 0 1 4 0l2.34 1.29a1.2 1.2 0 0 1 0 2.28L81.53 365.09a4.36 4.36 0 0 1-4 0l-2.32-1.27a1.2 1.2 0 0 1 .05-2.28M86.29 368.1 227 286.87a4 4 0 0 1 3.61-.2l36.62 21.15c.91.52.75 1.45-.34 2.08L126.35 391a4.05 4.05 0 0 1-3.62.2L86 370.18c-.95-.52-.8-1.45.29-2.08" style="fill:#263238"/><path d="m208.2 321 4.41-2.55c.18-.1.2-.27 0-.37l-4.21-2.43a.76.76 0 0 0-.64 0l-4.4 2.55c-.19.1-.21.27 0 .37l4.21 2.43a.76.76 0 0 0 .63 0m-6.43-8.8-4.41 2.54c-.18.11-.2.27 0 .37l4.21 2.43a.69.69 0 0 0 .64 0l4.41-2.54c.18-.11.2-.28 0-.37l-4.21-2.43a.69.69 0 0 0-.64-.01Zm-14.23 8.21-7.46 4.31c-.18.11-.2.27 0 .37l4.21 2.43a.69.69 0 0 0 .64 0l7.45-4.31c.19-.1.21-.27 0-.37l-4.21-2.43a.76.76 0 0 0-.63-.01Zm7.79-4.5-4.4 2.55c-.19.11-.21.27 0 .37l4.21 2.43a.69.69 0 0 0 .64 0l4.41-2.55c.19-.1.2-.27 0-.36l-4.19-2.47a.76.76 0 0 0-.67.02Zm-17.28 10-4.4 2.54c-.19.11-.21.28 0 .37l4.21 2.44a.76.76 0 0 0 .64 0l4.41-2.55c.18-.11.2-.27 0-.37l-4.21-2.43a.69.69 0 0 0-.65-.03Zm-6.44 3.72-4.4 2.54c-.19.11-.21.28 0 .37l4.21 2.43a.69.69 0 0 0 .64 0l4.41-2.54c.19-.11.2-.27 0-.37l-4.22-2.43a.69.69 0 0 0-.64-.03Zm16.52 9.93 4.41-2.55c.18-.1.2-.27 0-.37l-4.21-2.43a.69.69 0 0 0-.64 0l-4.4 2.55c-.19.1-.21.27 0 .37l4.21 2.43a.76.76 0 0 0 .63-.03Zm-6.44 3.71 4.41-2.54c.19-.11.2-.27 0-.37l-4.22-2.43a.69.69 0 0 0-.64 0l-4.4 2.54c-.19.11-.21.28 0 .37l4.21 2.44a.72.72 0 0 0 .64-.04Zm-6.43 3.73 4.4-2.54c.19-.11.2-.28 0-.37l-4.22-2.44a.73.73 0 0 0-.64 0l-4.4 2.54c-.19.11-.21.27 0 .37l4.22 2.43a.69.69 0 0 0 .64.01m-6.44 3.72 4.4-2.55c.19-.1.21-.27 0-.37l-4.21-2.43a.76.76 0 0 0-.64 0L164 347.9c-.19.1-.2.27 0 .37l4.22 2.43a.69.69 0 0 0 .6-.02Zm32.94-26 4.41-2.54c.19-.11.2-.27 0-.37l-4.17-2.45a.69.69 0 0 0-.64 0l-4.4 2.54c-.19.11-.21.28 0 .37l4.21 2.44a.72.72 0 0 0 .59-.01Zm-7.19 11.11 9.83-5.67c.18-.11.2-.28 0-.37l-10.23-5.91a.69.69 0 0 0-.64 0l-5.08 2.93c-.19.11-.21.28 0 .37l5.42 3.13c.16.1.15.26 0 .37l-4.12 2.32c-.18.11-.2.27 0 .37l4.21 2.43a.69.69 0 0 0 .61.01Zm-29.39-2.49-4.41 2.54c-.19.11-.2.27 0 .37l4.22 2.43a.69.69 0 0 0 .64 0l4.4-2.54c.19-.11.21-.28 0-.37l-4.22-2.44a.7.7 0 0 0-.63-.01Zm-6.44 3.66-4.41 2.55c-.19.1-.2.27 0 .37l4.22 2.43a.76.76 0 0 0 .64 0l4.4-2.55c.19-.1.21-.27 0-.37l-4.21-2.43a.69.69 0 0 0-.64 0m-35.63 39.69a.76.76 0 0 0 .64 0l4.41-2.55c.18-.1.2-.27 0-.37l-4.16-2.42a.69.69 0 0 0-.64 0l-4.41 2.55c-.18.1-.2.27 0 .37Zm-15.88-10-4.4 2.54c-.19.11-.21.28 0 .37l4.21 2.43a.69.69 0 0 0 .64 0l4.41-2.54c.19-.11.2-.27 0-.37l-4.22-2.43a.69.69 0 0 0-.64.08Zm8.17 7.45a.69.69 0 0 0 .64 0l4.4-2.54c.19-.11.2-.28 0-.37l-4.22-2.44a.73.73 0 0 0-.64 0l-4.4 2.54c-.19.11-.2.27 0 .37Zm17.76 4 4.4-2.55c.19-.11.21-.27 0-.37l-4.21-2.43a.69.69 0 0 0-.64 0l-4.41 2.55c-.18.1-.2.27 0 .37l4.21 2.43a.76.76 0 0 0 .65.08Zm-7.08 3.86a.69.69 0 0 0 .64 0l4.41-2.54c.18-.11.2-.27 0-.37l-4.13-2.5a.69.69 0 0 0-.64 0l-4.41 2.54c-.18.11-.2.28 0 .37Zm-12.41-18.9-4.4 2.54c-.19.11-.21.28 0 .37l4.21 2.44a.76.76 0 0 0 .64 0l4.41-2.55c.18-.11.2-.27 0-.37l-4.22-2.53a.69.69 0 0 0-.64.05Zm32.19-18.58-4.4 2.54c-.19.11-.21.27 0 .37l4.21 2.43a.69.69 0 0 0 .64 0l4.41-2.54c.18-.11.2-.28 0-.37l-4.21-2.44a.72.72 0 0 0-.65-.04Zm-25.75 14.86-4.41 2.55c-.18.11-.2.27 0 .37l4.21 2.43a.69.69 0 0 0 .64 0l4.4-2.54c.19-.11.21-.28 0-.37l-4.21-2.44a.76.76 0 0 0-.63-.05Zm32.19-18.58-4.41 2.54c-.18.11-.2.28 0 .37l4.21 2.44a.72.72 0 0 0 .64 0l4.4-2.54c.19-.11.21-.27 0-.37l-4.21-2.43a.69.69 0 0 0-.63-.06Zm-12.88 7.43-4.4 2.55c-.19.1-.21.27 0 .37l4.21 2.43a.69.69 0 0 0 .64 0l4.41-2.55c.19-.1.2-.27 0-.37l-4.22-2.43a.76.76 0 0 0-.64-.05ZM133 351.9l-4.4 2.54c-.19.11-.2.28 0 .37l4.22 2.44a.73.73 0 0 0 .64 0l4.4-2.54c.19-.11.21-.27 0-.37l-4.22-2.43a.69.69 0 0 0-.64-.01m-6.43 3.72-4.41 2.54c-.19.11-.2.27 0 .37l4.22 2.43a.69.69 0 0 0 .64 0l4.4-2.54c.19-.11.21-.28 0-.37l-4.21-2.43a.69.69 0 0 0-.66 0Zm29.39 2.49 4.41-2.54c.18-.11.2-.28 0-.37l-4.21-2.43a.69.69 0 0 0-.64 0l-4.41 2.54c-.18.11-.2.27 0 .37l4.21 2.43a.69.69 0 0 0 .62 0ZM216 304l-4.4 2.54c-.19.11-.21.28 0 .37l4.21 2.44a.72.72 0 0 0 .64 0l4.41-2.54c.19-.11.2-.27 0-.37l-4.22-2.44a.69.69 0 0 0-.64 0m-7.79 4.5-4.41 2.5c-.18.11-.2.28 0 .37l4.21 2.44a.72.72 0 0 0 .64 0l4.4-2.54c.19-.11.21-.27 0-.37l-4.21-2.43a.69.69 0 0 0-.63 0Zm14.23-8.22L218 302.8c-.18.1-.2.27 0 .37l4.21 2.43a.69.69 0 0 0 .64 0l4.41-2.55c.18-.1.2-.27 0-.37l-4.21-2.43a.76.76 0 0 0-.61 0Zm-35.59 33.06 4.41-2.54c.19-.11.2-.27 0-.37l-4.18-2.43a.69.69 0 0 0-.64 0l-4.4 2.54c-.19.11-.21.27 0 .37l4.21 2.43a.69.69 0 0 0 .6-.03Zm42.67-36.8a.72.72 0 0 0-.64 0l-4.41 2.54c-.18.11-.2.27 0 .37l4.21 2.43a.69.69 0 0 0 .64 0l4.4-2.54c.19-.11.21-.28 0-.37Zm-67.14 57.88 4.4-2.54c.19-.11.21-.27 0-.37l-4.21-2.43a.69.69 0 0 0-.64 0l-4.41 2.54c-.18.11-.2.28 0 .37l4.22 2.44a.72.72 0 0 0 .64-.04Zm79-45.58 4.4-2.54c.19-.11.21-.27 0-.37l-4.21-2.43a.69.69 0 0 0-.64 0l-4.42 2.5c-.18.11-.2.28 0 .37l4.21 2.43a.69.69 0 0 0 .61.01Zm-12.46.24 4.41-2.54c.18-.11.2-.27 0-.37l-4.21-2.43a.69.69 0 0 0-.64 0l-4.4 2.54c-.19.11-.21.28 0 .37l4.21 2.44a.72.72 0 0 0 .58-.04Zm6.67-9.06a.69.69 0 0 0-.64 0l-4.41 2.55c-.18.1-.2.27 0 .36l4.21 2.44a.76.76 0 0 0 .64 0l4.4-2.55c.19-.11.21-.27 0-.37Zm1.35-.78 10.24 5.91a.76.76 0 0 0 .64 0l4.4-2.55c.19-.11.21-.27 0-.37L242 296.27a.72.72 0 0 0-.64 0l-4.41 2.54c-.21.19-.22.3-.06.4ZM222 307.45l-4.4 2.54c-.19.11-.21.27 0 .37l4.21 2.43a.69.69 0 0 0 .64 0l4.41-2.54c.19-.11.2-.28 0-.37l-4.22-2.44a.73.73 0 0 0-.64.01m-48.45 28-4.39 2.55c-.18.1-.2.27 0 .36l4.22 2.44a.76.76 0 0 0 .64 0l4.4-2.55c.19-.11.21-.27 0-.37l-4.21-2.43a.69.69 0 0 0-.64-.03Zm60.68-22.87a.69.69 0 0 0 .64 0l4.43-2.58c.18-.11.2-.28 0-.37l-4.21-2.44a.72.72 0 0 0-.64 0l-4.4 2.54c-.19.11-.21.27 0 .37ZM180 331.7l-4.41 2.55c-.19.11-.2.27 0 .37l4.22 2.43a.69.69 0 0 0 .64 0l4.4-2.54c.19-.11.21-.28 0-.37l-4.21-2.44a.76.76 0 0 0-.64 0M129.55 373a.69.69 0 0 0 .64 0l4.4-2.54c.19-.11.21-.28 0-.37l-4.21-2.44a.72.72 0 0 0-.64 0l-4.41 2.54c-.18.11-.2.27 0 .37Zm-7.49-7.84-4.4 2.54c-.19.11-.21.27 0 .37l4.21 2.43a.69.69 0 0 0 .64 0l4.41-2.54c.19-.11.2-.27 0-.37l-4.22-2.43a.69.69 0 0 0-.64 0m14.57 4.1 4.4-2.54c.19-.11.21-.27 0-.37l-4.22-2.43a.67.67 0 0 0-.63 0l-4.41 2.54c-.19.11-.2.28 0 .37l4.22 2.43a.69.69 0 0 0 .64 0m6.43-3.71 4.41-2.55c.19-.11.2-.27 0-.37l-4.22-2.43a.69.69 0 0 0-.64 0l-4.4 2.54c-.19.11-.21.28 0 .37l4.22 2.44a.73.73 0 0 0 .63 0m6.44-3.72 4.41-2.54c.18-.11.2-.28 0-.37l-4.22-2.44a.76.76 0 0 0-.64 0l-4.4 2.55c-.19.11-.21.27 0 .37l4.21 2.43a.69.69 0 0 0 .64 0m-21-.39-4.4 2.56c-.19.11-.21.28 0 .37l4.21 2.44a.72.72 0 0 0 .64 0l4.41-2.54c.18-.11.2-.27 0-.37l-4.21-2.43a.69.69 0 0 0-.65-.03m6.44-3.72-4.41 2.55c-.18.11-.2.27 0 .37l4.21 2.43a.69.69 0 0 0 .64 0l4.41-2.55c.18-.1.2-.27 0-.36l-4.21-2.44a.76.76 0 0 0-.64 0m25.75-14.86-4.4 2.54c-.19.11-.21.27 0 .37l4.21 2.43a.69.69 0 0 0 .64 0l4.41-2.54c.18-.11.2-.28 0-.37l-4.22-2.44a.72.72 0 0 0-.64.01m-6.44 3.71-4.4 2.55c-.19.1-.21.27 0 .37l4.21 2.43a.76.76 0 0 0 .64 0l4.41-2.55c.19-.1.2-.27 0-.37l-4.22-2.43a.69.69 0 0 0-.64 0m12.88-7.43-4.41 2.54c-.18.11-.2.28 0 .37l4.21 2.43a.69.69 0 0 0 .64 0l4.41-2.54c.18-.11.2-.27 0-.37l-4.21-2.43a.69.69 0 0 0-.64 0M141.38 354l-4.38 2.55c-.19.11-.2.27 0 .37l4.22 2.43a.69.69 0 0 0 .64 0l4.4-2.54c.19-.11.21-.28 0-.37L142 354a.69.69 0 0 0-.62 0m6.43-3.72-4.4 2.54c-.19.11-.2.28 0 .37l4.22 2.44a.73.73 0 0 0 .64 0l4.4-2.54c.19-.11.21-.27 0-.37l-4.22-2.43a.69.69 0 0 0-.64 0Zm-8.21 24.22 4.4-2.5c.19-.11.21-.28 0-.37l-4.21-2.44a.72.72 0 0 0-.64 0l-4.41 2.54c-.19.11-.2.27 0 .37l4.22 2.43a.69.69 0 0 0 .64-.03m-33.95-1.6-4.22-2.44a.73.73 0 0 0-.64 0l-4.4 2.54c-.19.11-.2.27 0 .37l4.22 2.43a.69.69 0 0 0 .64 0l4.4-2.54c.15-.1.16-.26 0-.36M114 375l-4.21-2.43a.69.69 0 0 0-.64 0l-6.78 3.91c-.19.11-.2.28 0 .37l4.22 2.44a.76.76 0 0 0 .64 0l6.77-3.92c.19-.11.21-.27 0-.37m-14.68-6.91-4.22-2.43a.69.69 0 0 0-.64 0l-5.42 3.13c-.18.11-.2.27 0 .37l4.22 2.43a.69.69 0 0 0 .64 0l5.42-3.13c.19-.11.2-.27.04-.37Zm4.15-2.4a.69.69 0 0 0 .64 0l4.41-2.54c.19-.11.2-.28 0-.37l-4.22-2.44a.73.73 0 0 0-.64 0l-4.4 2.54c-.19.11-.21.27 0 .37Zm18.25 11.81-4.22-2.43a.69.69 0 0 0-.64 0l-8.43 4.93c-.19.11-.2.27 0 .37l4.22 2.43a.69.69 0 0 0 .64 0l8.47-4.89c.14-.15.16-.31 0-.41Zm3 5.24-4.22-2.44a.73.73 0 0 0-.64 0l-5.42 3.13c-.19.1-.2.27 0 .37l4.22 2.43a.76.76 0 0 0 .64 0l5.42-3.13c.16-.1.17-.27.01-.36Zm26.65-44.68a.72.72 0 0 0 .64 0l4.41-2.54c.18-.11.2-.27 0-.37l-4.21-2.43a.69.69 0 0 0-.64 0l-4.4 2.54c-.19.11-.21.28 0 .37Zm-12.87 7.43a.69.69 0 0 0 .64 0l4.4-2.55c.19-.1.21-.27 0-.36l-4.22-2.44a.76.76 0 0 0-.64 0l-4.4 2.55c-.19.11-.2.27 0 .37ZM110 362a.69.69 0 0 0 .64 0l4.41-2.54c.18-.11.2-.27 0-.37l-4.22-2.43a.69.69 0 0 0-.64 0l-4.4 2.54c-.19.11-.21.28 0 .37Zm35-20.2a.69.69 0 0 0 .64 0l4.41-2.54c.19-.11.2-.28 0-.37l-4.22-2.44a.73.73 0 0 0-.64 0l-4.4 2.54c-.19.11-.21.27 0 .37Zm-12.87 7.44a.73.73 0 0 0 .64 0l4.4-2.54c.19-.11.21-.27 0-.37l-4.21-2.43a.69.69 0 0 0-.64 0l-4.41 2.54c-.19.11-.2.28 0 .37ZM127.89 383a.69.69 0 0 0-.64 0l-6.78 3.91c-.19.11-.2.28 0 .37l4.22 2.43a.69.69 0 0 0 .64 0l6.77-3.91c.19-.11.21-.27 0-.37Zm-5.06-28.46a.69.69 0 0 0 .64 0l4.4-2.54c.19-.11.21-.28 0-.37l-4.21-2.44a.76.76 0 0 0-.64 0l-4.41 2.55c-.18.11-.2.27 0 .37Zm-6.44 3.72a.76.76 0 0 0 .64 0l4.41-2.55c.18-.11.2-.27 0-.37l-4.21-2.43a.69.69 0 0 0-.64 0l-4.41 2.55c-.18.1-.2.27 0 .36Zm130.77-44.12a.69.69 0 0 0-.64 0l-10.84 6.26c-.19.11-.21.27 0 .37l4.21 2.43a.69.69 0 0 0 .64 0l10.85-6.26c.18-.11.2-.28 0-.37Zm-14.23 8.21a.76.76 0 0 0-.64 0l-4.41 2.55c-.18.1-.2.27 0 .37l4.21 2.43a.69.69 0 0 0 .64 0l4.41-2.55c.18-.1.2-.27 0-.37ZM146 370.78l4.4-2.54c.19-.11.2-.27 0-.37l-4.22-2.43a.69.69 0 0 0-.64 0l-4.4 2.54c-.19.11-.2.27 0 .37l4.22 2.43a.69.69 0 0 0 .64 0m74-41a.69.69 0 0 0-.64 0l-4.4 2.54c-.19.11-.21.27 0 .37l4.21 2.43a.69.69 0 0 0 .64 0l4.41-2.54c.19-.11.2-.28 0-.37Zm33.55-19.37a.69.69 0 0 0-.64 0l-4.36 2.59c-.18.11-.2.28 0 .37l4.21 2.44a.72.72 0 0 0 .64 0l4.41-2.54c.18-.11.2-.27 0-.37Zm10.65-1.29-10.2-5.89a.69.69 0 0 0-.64 0l-4.36 2.56c-.19.11-.2.27 0 .37l10.24 5.91a.76.76 0 0 0 .64 0l4.4-2.55c.12-.12.14-.29-.03-.39ZM196 343.68a.69.69 0 0 0-.64 0l-5.43 3.13c-.18.11-.2.27 0 .37l4.21 2.43a.69.69 0 0 0 .64 0l5.42-3.13c.19-.11.21-.28 0-.37Zm16.26-9.39a.69.69 0 0 0-.64 0l-6.78 3.91c-.18.11-.2.27 0 .37L209 341a.69.69 0 0 0 .64 0l6.78-3.91c.18-.11.2-.28 0-.37Zm-31.17 18a.72.72 0 0 0-.64 0l-36.26 20.93c-.19.11-.2.27 0 .37l4.22 2.43a.69.69 0 0 0 .64 0l36.25-20.93c.19-.11.21-.28 0-.37Zm-38.29 22.1a.69.69 0 0 0-.64 0l-5.42 3.13c-.19.11-.21.28 0 .37l4.21 2.43a.69.69 0 0 0 .64 0l5.42-3.13c.19-.11.21-.27 0-.37ZM188.54 348a.69.69 0 0 0-.64 0l-5.42 3.13c-.19.11-.21.27 0 .37l4.22 2.43a.69.69 0 0 0 .64 0l5.42-3.13c.18-.11.2-.27 0-.37Zm-53.2 30.71a.73.73 0 0 0-.64 0l-5.42 3.13c-.19.1-.2.27 0 .37l4.22 2.43a.76.76 0 0 0 .64 0l5.42-3.13c.19-.11.2-.28 0-.37Zm68.11-39.32a.76.76 0 0 0-.64 0l-5.42 3.13c-.19.11-.21.28 0 .37l4.22 2.44a.7.7 0 0 0 .63 0l5.43-3.13c.18-.1.2-.27 0-.37Zm23-13.3a.69.69 0 0 0-.64 0l-4.4 2.54c-.19.11-.21.28 0 .37l4.21 2.44a.72.72 0 0 0 .64 0l4.41-2.54c.18-.11.2-.27 0-.37ZM240.91 316l4.41-2.54c.18-.11.2-.27 0-.37l-4.21-2.43a.69.69 0 0 0-.64 0l-4.4 2.54c-.19.11-.21.28 0 .37l4.21 2.44a.72.72 0 0 0 .63-.01m-26.27 1.27 4.4-2.54c.19-.11.21-.28 0-.37l-4.21-2.44a.72.72 0 0 0-.64 0l-4.41 2.54c-.18.11-.2.27 0 .37l4.21 2.43a.69.69 0 0 0 .65.01m-17.1 23.78 12.88-7.44c.18-.11.2-.27 0-.37l-4.21-2.43a.69.69 0 0 0-.64 0l-12.88 7.44c-.18.1-.2.27 0 .36l4.21 2.44a.76.76 0 0 0 .64 0m36.29-21.31a.69.69 0 0 0 .64 0l4.41-2.54c.19-.11.2-.27 0-.37l-4.22-2.43a.69.69 0 0 0-.64 0l-4.4 2.54c-.19.11-.21.28 0 .37Zm-5.38-3.49 4.41-2.55c.19-.11.2-.27 0-.37l-4.22-2.43a.69.69 0 0 0-.64 0l-4.4 2.55c-.19.1-.21.27 0 .36l4.21 2.44a.76.76 0 0 0 .64 0m-37.35 28.51 4.41-2.54c.18-.11.2-.27 0-.37l-4.21-2.43a.69.69 0 0 0-.64 0l-4.4 2.54c-.19.11-.21.28 0 .37l4.21 2.43a.69.69 0 0 0 .63 0M219.6 328a.69.69 0 0 0 .64 0l4.41-2.54c.18-.11.2-.28 0-.37l-4.22-2.44a.76.76 0 0 0-.64 0l-4.4 2.55c-.19.11-.21.27 0 .37Zm-60.69 35.39 4.41-2.55c.18-.1.2-.27 0-.36l-4.18-2.48a.76.76 0 0 0-.64 0l-4.4 2.55c-.19.11-.21.27 0 .37l4.21 2.43a.69.69 0 0 0 .6 0Zm6.44-3.72 4.4-2.54c.19-.11.21-.28 0-.37l-4.21-2.43a.69.69 0 0 0-.64 0l-4.41 2.54c-.18.11-.2.27 0 .37l4.21 2.43a.69.69 0 0 0 .65-.04Zm-12.88 7.43 4.41-2.54c.19-.11.2-.27 0-.37l-4.22-2.43a.69.69 0 0 0-.64 0l-4.4 2.54c-.19.11-.21.28 0 .37l4.21 2.44a.72.72 0 0 0 .64-.05Zm25.76-14.86 4.4-2.55c.19-.1.2-.27 0-.37l-4.22-2.43a.76.76 0 0 0-.64 0l-4.4 2.55c-.19.1-.2.27 0 .37l4.22 2.43a.76.76 0 0 0 .64-.04Zm-6.44 3.71 4.4-2.54c.19-.11.21-.27 0-.37l-4.19-2.47a.69.69 0 0 0-.64 0l-4.36 2.56c-.19.11-.2.28 0 .37l4.22 2.44a.73.73 0 0 0 .57-.03Zm12.87-7.43 4.41-2.54c.19-.11.2-.28 0-.37l-4.22-2.44a.73.73 0 0 0-.64 0l-4.4 2.54c-.19.11-.21.27 0 .37l4.19 2.42a.69.69 0 0 0 .66-.02Zm35.14-51.71a.69.69 0 0 0 .64 0l4.4-2.54c.19-.11.21-.28 0-.37l-1.12-.65a.69.69 0 0 0-.64 0l-4.41 2.54c-.18.11-.2.28 0 .37Zm-32 20.19a.69.69 0 0 0 .64 0l4.4-2.54c.19-.11.21-.28 0-.37l-4.21-2.44a.72.72 0 0 0-.64 0l-4.41 2.54c-.19.11-.2.27 0 .37Zm12.87-7.43a.76.76 0 0 0 .64 0l4.41-2.55c.18-.11.2-.27 0-.37l-4.22-2.43a.69.69 0 0 0-.64 0l-4.4 2.54c-.19.11-.21.28 0 .37Zm-20.73 12a.69.69 0 0 0 .64 0L185 319c.19-.11.2-.28 0-.37l-4.22-2.44a.76.76 0 0 0-.64 0l-4.4 2.55c-.19.11-.2.27 0 .37Zm14.3-8.26a.69.69 0 0 0 .64 0l4.4-2.54c.19-.11.2-.27 0-.37l-4.18-2.4a.69.69 0 0 0-.64 0l-4.4 2.54c-.19.11-.21.28 0 .37ZM167.06 329a.69.69 0 0 0 .64 0l4.4-2.54c.19-.11.21-.27 0-.37l-4.21-2.43a.69.69 0 0 0-.64 0l-4.41 2.54c-.18.11-.2.28 0 .37Zm6.44-3.71a.76.76 0 0 0 .64 0l4.4-2.55c.19-.11.21-.27 0-.37l-4.21-2.43a.69.69 0 0 0-.64 0l-4.41 2.54c-.19.11-.2.28 0 .37Zm33.42-21.08a.72.72 0 0 0 .64 0l4.41-2.54c.18-.11.2-.27 0-.37l-1.12-.65a.76.76 0 0 0-.64 0l-4.4 2.55c-.19.11-.21.27 0 .37Zm19.31-11.16a.69.69 0 0 0 .64 0l4.41-2.54c.19-.11.2-.27 0-.37l-1.12-.65a.76.76 0 0 0-.64 0l-4.37 2.51c-.19.1-.2.27 0 .37Zm8.86 5.12a.73.73 0 0 0 .64 0l4.4-2.54c.19-.11.21-.27 0-.37L236 292.8a.69.69 0 0 0-.64 0l-4.41 2.54c-.19.11-.2.28 0 .37Zm12.26 14.12 4.41-2.55c.18-.1.2-.27 0-.36l-4.21-2.44a.76.76 0 0 0-.64 0l-4.41 2.55c-.18.11-.2.27 0 .37l4.21 2.43a.69.69 0 0 0 .64 0m-34-11.8a.76.76 0 0 0 .64 0l4.4-2.55c.19-.1.21-.27 0-.37l-1.12-.64a.69.69 0 0 0-.64 0l-4.41 2.54c-.18.11-.2.27 0 .37Zm-52.74 32.23a.69.69 0 0 0 .64 0l4.41-2.54c.18-.11.2-.28 0-.37l-4.21-2.44a.72.72 0 0 0-.64 0l-4.41 2.54c-.18.11-.2.27 0 .37Z" style="fill:#fde047"/><path d="m208.2 321 4.41-2.55c.18-.1.2-.27 0-.37l-4.21-2.43a.76.76 0 0 0-.64 0l-4.4 2.55c-.19.1-.21.27 0 .37l4.21 2.43a.76.76 0 0 0 .63 0m-6.43-8.8-4.41 2.54c-.18.11-.2.27 0 .37l4.21 2.43a.69.69 0 0 0 .64 0l4.41-2.54c.18-.11.2-.28 0-.37l-4.21-2.43a.69.69 0 0 0-.64-.01Zm-14.23 8.21-7.46 4.31c-.18.11-.2.27 0 .37l4.21 2.43a.69.69 0 0 0 .64 0l7.45-4.31c.19-.1.21-.27 0-.37l-4.21-2.43a.76.76 0 0 0-.63-.01Zm7.79-4.5-4.4 2.55c-.19.11-.21.27 0 .37l4.21 2.43a.69.69 0 0 0 .64 0l4.41-2.55c.19-.1.2-.27 0-.36l-4.19-2.47a.76.76 0 0 0-.67.02Zm-17.28 10-4.4 2.54c-.19.11-.21.28 0 .37l4.21 2.44a.76.76 0 0 0 .64 0l4.41-2.55c.18-.11.2-.27 0-.37l-4.21-2.43a.69.69 0 0 0-.65-.03Zm-6.44 3.72-4.4 2.54c-.19.11-.21.28 0 .37l4.21 2.43a.69.69 0 0 0 .64 0l4.41-2.54c.19-.11.2-.27 0-.37l-4.22-2.43a.69.69 0 0 0-.64-.03Zm16.52 9.93 4.41-2.55c.18-.1.2-.27 0-.37l-4.21-2.43a.69.69 0 0 0-.64 0l-4.4 2.55c-.19.1-.21.27 0 .37l4.21 2.43a.76.76 0 0 0 .63-.03Zm-6.44 3.71 4.41-2.54c.19-.11.2-.27 0-.37l-4.22-2.43a.69.69 0 0 0-.64 0l-4.4 2.54c-.19.11-.21.28 0 .37l4.21 2.44a.72.72 0 0 0 .64-.04Zm-6.43 3.73 4.4-2.54c.19-.11.2-.28 0-.37l-4.22-2.44a.73.73 0 0 0-.64 0l-4.4 2.54c-.19.11-.21.27 0 .37l4.22 2.43a.69.69 0 0 0 .64.01m-6.44 3.72 4.4-2.55c.19-.1.21-.27 0-.37l-4.21-2.43a.76.76 0 0 0-.64 0L164 347.9c-.19.1-.2.27 0 .37l4.22 2.43a.69.69 0 0 0 .6-.02Zm32.94-26 4.41-2.54c.19-.11.2-.27 0-.37l-4.17-2.45a.69.69 0 0 0-.64 0l-4.4 2.54c-.19.11-.21.28 0 .37l4.21 2.44a.72.72 0 0 0 .59-.01Zm-7.19 11.11 9.83-5.67c.18-.11.2-.28 0-.37l-10.23-5.91a.69.69 0 0 0-.64 0l-5.08 2.93c-.19.11-.21.28 0 .37l5.42 3.13c.16.1.15.26 0 .37l-4.12 2.32c-.18.11-.2.27 0 .37l4.21 2.43a.69.69 0 0 0 .61.01Zm-29.39-2.49-4.41 2.54c-.19.11-.2.27 0 .37l4.22 2.43a.69.69 0 0 0 .64 0l4.4-2.54c.19-.11.21-.28 0-.37l-4.22-2.44a.7.7 0 0 0-.63-.01Zm-6.44 3.66-4.41 2.55c-.19.1-.2.27 0 .37l4.22 2.43a.76.76 0 0 0 .64 0l4.4-2.55c.19-.1.21-.27 0-.37l-4.21-2.43a.69.69 0 0 0-.64 0m-35.63 39.69a.76.76 0 0 0 .64 0l4.41-2.55c.18-.1.2-.27 0-.37l-4.16-2.42a.69.69 0 0 0-.64 0l-4.41 2.55c-.18.1-.2.27 0 .37Zm-15.88-10-4.4 2.54c-.19.11-.21.28 0 .37l4.21 2.43a.69.69 0 0 0 .64 0l4.41-2.54c.19-.11.2-.27 0-.37l-4.22-2.43a.69.69 0 0 0-.64.08Zm8.17 7.45a.69.69 0 0 0 .64 0l4.4-2.54c.19-.11.2-.28 0-.37l-4.22-2.44a.73.73 0 0 0-.64 0l-4.4 2.54c-.19.11-.2.27 0 .37Zm17.76 4 4.4-2.55c.19-.11.21-.27 0-.37l-4.21-2.43a.69.69 0 0 0-.64 0l-4.41 2.55c-.18.1-.2.27 0 .37l4.21 2.43a.76.76 0 0 0 .65.08Zm-7.08 3.86a.69.69 0 0 0 .64 0l4.41-2.54c.18-.11.2-.27 0-.37l-4.13-2.5a.69.69 0 0 0-.64 0l-4.41 2.54c-.18.11-.2.28 0 .37Zm-12.41-18.9-4.4 2.54c-.19.11-.21.28 0 .37l4.21 2.44a.76.76 0 0 0 .64 0l4.41-2.55c.18-.11.2-.27 0-.37l-4.22-2.53a.69.69 0 0 0-.64.05Zm32.19-18.58-4.4 2.54c-.19.11-.21.27 0 .37l4.21 2.43a.69.69 0 0 0 .64 0l4.41-2.54c.18-.11.2-.28 0-.37l-4.21-2.44a.72.72 0 0 0-.65-.04Zm-25.75 14.86-4.41 2.55c-.18.11-.2.27 0 .37l4.21 2.43a.69.69 0 0 0 .64 0l4.4-2.54c.19-.11.21-.28 0-.37l-4.21-2.44a.76.76 0 0 0-.63-.05Zm32.19-18.58-4.41 2.54c-.18.11-.2.28 0 .37l4.21 2.44a.72.72 0 0 0 .64 0l4.4-2.54c.19-.11.21-.27 0-.37l-4.21-2.43a.69.69 0 0 0-.63-.06Zm-12.88 7.43-4.4 2.55c-.19.1-.21.27 0 .37l4.21 2.43a.69.69 0 0 0 .64 0l4.41-2.55c.19-.1.2-.27 0-.37l-4.22-2.43a.76.76 0 0 0-.64-.05ZM133 351.9l-4.4 2.54c-.19.11-.2.28 0 .37l4.22 2.44a.73.73 0 0 0 .64 0l4.4-2.54c.19-.11.21-.27 0-.37l-4.22-2.43a.69.69 0 0 0-.64-.01m-6.43 3.72-4.41 2.54c-.19.11-.2.27 0 .37l4.22 2.43a.69.69 0 0 0 .64 0l4.4-2.54c.19-.11.21-.28 0-.37l-4.21-2.43a.69.69 0 0 0-.66 0Zm29.39 2.49 4.41-2.54c.18-.11.2-.28 0-.37l-4.21-2.43a.69.69 0 0 0-.64 0l-4.41 2.54c-.18.11-.2.27 0 .37l4.21 2.43a.69.69 0 0 0 .62 0ZM216 304l-4.4 2.54c-.19.11-.21.28 0 .37l4.21 2.44a.72.72 0 0 0 .64 0l4.41-2.54c.19-.11.2-.27 0-.37l-4.22-2.44a.69.69 0 0 0-.64 0m-7.79 4.5-4.41 2.5c-.18.11-.2.28 0 .37l4.21 2.44a.72.72 0 0 0 .64 0l4.4-2.54c.19-.11.21-.27 0-.37l-4.21-2.43a.69.69 0 0 0-.63 0Zm14.23-8.22L218 302.8c-.18.1-.2.27 0 .37l4.21 2.43a.69.69 0 0 0 .64 0l4.41-2.55c.18-.1.2-.27 0-.37l-4.21-2.43a.76.76 0 0 0-.61 0Zm-35.59 33.06 4.41-2.54c.19-.11.2-.27 0-.37l-4.18-2.43a.69.69 0 0 0-.64 0l-4.4 2.54c-.19.11-.21.27 0 .37l4.21 2.43a.69.69 0 0 0 .6-.03Zm42.67-36.8a.72.72 0 0 0-.64 0l-4.41 2.54c-.18.11-.2.27 0 .37l4.21 2.43a.69.69 0 0 0 .64 0l4.4-2.54c.19-.11.21-.28 0-.37Zm-67.14 57.88 4.4-2.54c.19-.11.21-.27 0-.37l-4.21-2.43a.69.69 0 0 0-.64 0l-4.41 2.54c-.18.11-.2.28 0 .37l4.22 2.44a.72.72 0 0 0 .64-.04Zm79-45.58 4.4-2.54c.19-.11.21-.27 0-.37l-4.21-2.43a.69.69 0 0 0-.64 0l-4.42 2.5c-.18.11-.2.28 0 .37l4.21 2.43a.69.69 0 0 0 .61.01Zm-12.46.24 4.41-2.54c.18-.11.2-.27 0-.37l-4.21-2.43a.69.69 0 0 0-.64 0l-4.4 2.54c-.19.11-.21.28 0 .37l4.21 2.44a.72.72 0 0 0 .58-.04Zm6.67-9.06a.69.69 0 0 0-.64 0l-4.41 2.55c-.18.1-.2.27 0 .36l4.21 2.44a.76.76 0 0 0 .64 0l4.4-2.55c.19-.11.21-.27 0-.37Zm1.35-.78 10.24 5.91a.76.76 0 0 0 .64 0l4.4-2.55c.19-.11.21-.27 0-.37L242 296.27a.72.72 0 0 0-.64 0l-4.41 2.54c-.21.19-.22.3-.06.4ZM222 307.45l-4.4 2.54c-.19.11-.21.27 0 .37l4.21 2.43a.69.69 0 0 0 .64 0l4.41-2.54c.19-.11.2-.28 0-.37l-4.22-2.44a.73.73 0 0 0-.64.01m-48.45 28-4.39 2.55c-.18.1-.2.27 0 .36l4.22 2.44a.76.76 0 0 0 .64 0l4.4-2.55c.19-.11.21-.27 0-.37l-4.21-2.43a.69.69 0 0 0-.64-.03Zm60.68-22.87a.69.69 0 0 0 .64 0l4.43-2.58c.18-.11.2-.28 0-.37l-4.21-2.44a.72.72 0 0 0-.64 0l-4.4 2.54c-.19.11-.21.27 0 .37ZM180 331.7l-4.41 2.55c-.19.11-.2.27 0 .37l4.22 2.43a.69.69 0 0 0 .64 0l4.4-2.54c.19-.11.21-.28 0-.37l-4.21-2.44a.76.76 0 0 0-.64 0M129.55 373a.69.69 0 0 0 .64 0l4.4-2.54c.19-.11.21-.28 0-.37l-4.21-2.44a.72.72 0 0 0-.64 0l-4.41 2.54c-.18.11-.2.27 0 .37Zm-7.49-7.84-4.4 2.54c-.19.11-.21.27 0 .37l4.21 2.43a.69.69 0 0 0 .64 0l4.41-2.54c.19-.11.2-.27 0-.37l-4.22-2.43a.69.69 0 0 0-.64 0m14.57 4.1 4.4-2.54c.19-.11.21-.27 0-.37l-4.22-2.43a.67.67 0 0 0-.63 0l-4.41 2.54c-.19.11-.2.28 0 .37l4.22 2.43a.69.69 0 0 0 .64 0m6.43-3.71 4.41-2.55c.19-.11.2-.27 0-.37l-4.22-2.43a.69.69 0 0 0-.64 0l-4.4 2.54c-.19.11-.21.28 0 .37l4.22 2.44a.73.73 0 0 0 .63 0m6.44-3.72 4.41-2.54c.18-.11.2-.28 0-.37l-4.22-2.44a.76.76 0 0 0-.64 0l-4.4 2.55c-.19.11-.21.27 0 .37l4.21 2.43a.69.69 0 0 0 .64 0m-21-.39-4.4 2.56c-.19.11-.21.28 0 .37l4.21 2.44a.72.72 0 0 0 .64 0l4.41-2.54c.18-.11.2-.27 0-.37l-4.21-2.43a.69.69 0 0 0-.65-.03m6.44-3.72-4.41 2.55c-.18.11-.2.27 0 .37l4.21 2.43a.69.69 0 0 0 .64 0l4.41-2.55c.18-.1.2-.27 0-.36l-4.21-2.44a.76.76 0 0 0-.64 0m25.75-14.86-4.4 2.54c-.19.11-.21.27 0 .37l4.21 2.43a.69.69 0 0 0 .64 0l4.41-2.54c.18-.11.2-.28 0-.37l-4.22-2.44a.72.72 0 0 0-.64.01m-6.44 3.71-4.4 2.55c-.19.1-.21.27 0 .37l4.21 2.43a.76.76 0 0 0 .64 0l4.41-2.55c.19-.1.2-.27 0-.37l-4.22-2.43a.69.69 0 0 0-.64 0m12.88-7.43-4.41 2.54c-.18.11-.2.28 0 .37l4.21 2.43a.69.69 0 0 0 .64 0l4.41-2.54c.18-.11.2-.27 0-.37l-4.21-2.43a.69.69 0 0 0-.64 0M141.38 354l-4.38 2.55c-.19.11-.2.27 0 .37l4.22 2.43a.69.69 0 0 0 .64 0l4.4-2.54c.19-.11.21-.28 0-.37L142 354a.69.69 0 0 0-.62 0m6.43-3.72-4.4 2.54c-.19.11-.2.28 0 .37l4.22 2.44a.73.73 0 0 0 .64 0l4.4-2.54c.19-.11.21-.27 0-.37l-4.22-2.43a.69.69 0 0 0-.64 0Zm-8.21 24.22 4.4-2.5c.19-.11.21-.28 0-.37l-4.21-2.44a.72.72 0 0 0-.64 0l-4.41 2.54c-.19.11-.2.27 0 .37l4.22 2.43a.69.69 0 0 0 .64-.03m-33.95-1.6-4.22-2.44a.73.73 0 0 0-.64 0l-4.4 2.54c-.19.11-.2.27 0 .37l4.22 2.43a.69.69 0 0 0 .64 0l4.4-2.54c.15-.1.16-.26 0-.36M114 375l-4.21-2.43a.69.69 0 0 0-.64 0l-6.78 3.91c-.19.11-.2.28 0 .37l4.22 2.44a.76.76 0 0 0 .64 0l6.77-3.92c.19-.11.21-.27 0-.37m-14.68-6.91-4.22-2.43a.69.69 0 0 0-.64 0l-5.42 3.13c-.18.11-.2.27 0 .37l4.22 2.43a.69.69 0 0 0 .64 0l5.42-3.13c.19-.11.2-.27.04-.37Zm4.15-2.4a.69.69 0 0 0 .64 0l4.41-2.54c.19-.11.2-.28 0-.37l-4.22-2.44a.73.73 0 0 0-.64 0l-4.4 2.54c-.19.11-.21.27 0 .37Zm18.25 11.81-4.22-2.43a.69.69 0 0 0-.64 0l-8.43 4.93c-.19.11-.2.27 0 .37l4.22 2.43a.69.69 0 0 0 .64 0l8.47-4.89c.14-.15.16-.31 0-.41Zm3 5.24-4.22-2.44a.73.73 0 0 0-.64 0l-5.42 3.13c-.19.1-.2.27 0 .37l4.22 2.43a.76.76 0 0 0 .64 0l5.42-3.13c.16-.1.17-.27.01-.36Zm26.65-44.68a.72.72 0 0 0 .64 0l4.41-2.54c.18-.11.2-.27 0-.37l-4.21-2.43a.69.69 0 0 0-.64 0l-4.4 2.54c-.19.11-.21.28 0 .37Zm-12.87 7.43a.69.69 0 0 0 .64 0l4.4-2.55c.19-.1.21-.27 0-.36l-4.22-2.44a.76.76 0 0 0-.64 0l-4.4 2.55c-.19.11-.2.27 0 .37ZM110 362a.69.69 0 0 0 .64 0l4.41-2.54c.18-.11.2-.27 0-.37l-4.22-2.43a.69.69 0 0 0-.64 0l-4.4 2.54c-.19.11-.21.28 0 .37Zm35-20.2a.69.69 0 0 0 .64 0l4.41-2.54c.19-.11.2-.28 0-.37l-4.22-2.44a.73.73 0 0 0-.64 0l-4.4 2.54c-.19.11-.21.27 0 .37Zm-12.87 7.44a.73.73 0 0 0 .64 0l4.4-2.54c.19-.11.21-.27 0-.37l-4.21-2.43a.69.69 0 0 0-.64 0l-4.41 2.54c-.19.11-.2.28 0 .37ZM127.89 383a.69.69 0 0 0-.64 0l-6.78 3.91c-.19.11-.2.28 0 .37l4.22 2.43a.69.69 0 0 0 .64 0l6.77-3.91c.19-.11.21-.27 0-.37Zm-5.06-28.46a.69.69 0 0 0 .64 0l4.4-2.54c.19-.11.21-.28 0-.37l-4.21-2.44a.76.76 0 0 0-.64 0l-4.41 2.55c-.18.11-.2.27 0 .37Zm-6.44 3.72a.76.76 0 0 0 .64 0l4.41-2.55c.18-.11.2-.27 0-.37l-4.21-2.43a.69.69 0 0 0-.64 0l-4.41 2.55c-.18.1-.2.27 0 .36Zm130.77-44.12a.69.69 0 0 0-.64 0l-10.84 6.26c-.19.11-.21.27 0 .37l4.21 2.43a.69.69 0 0 0 .64 0l10.85-6.26c.18-.11.2-.28 0-.37Zm-14.23 8.21a.76.76 0 0 0-.64 0l-4.41 2.55c-.18.1-.2.27 0 .37l4.21 2.43a.69.69 0 0 0 .64 0l4.41-2.55c.18-.1.2-.27 0-.37ZM146 370.78l4.4-2.54c.19-.11.2-.27 0-.37l-4.22-2.43a.69.69 0 0 0-.64 0l-4.4 2.54c-.19.11-.2.27 0 .37l4.22 2.43a.69.69 0 0 0 .64 0m74-41a.69.69 0 0 0-.64 0l-4.4 2.54c-.19.11-.21.27 0 .37l4.21 2.43a.69.69 0 0 0 .64 0l4.41-2.54c.19-.11.2-.28 0-.37Zm33.55-19.37a.69.69 0 0 0-.64 0l-4.36 2.59c-.18.11-.2.28 0 .37l4.21 2.44a.72.72 0 0 0 .64 0l4.41-2.54c.18-.11.2-.27 0-.37Zm10.65-1.29-10.2-5.89a.69.69 0 0 0-.64 0l-4.36 2.56c-.19.11-.2.27 0 .37l10.24 5.91a.76.76 0 0 0 .64 0l4.4-2.55c.12-.12.14-.29-.03-.39ZM196 343.68a.69.69 0 0 0-.64 0l-5.43 3.13c-.18.11-.2.27 0 .37l4.21 2.43a.69.69 0 0 0 .64 0l5.42-3.13c.19-.11.21-.28 0-.37Zm16.26-9.39a.69.69 0 0 0-.64 0l-6.78 3.91c-.18.11-.2.27 0 .37L209 341a.69.69 0 0 0 .64 0l6.78-3.91c.18-.11.2-.28 0-.37Zm-31.17 18a.72.72 0 0 0-.64 0l-36.26 20.93c-.19.11-.2.27 0 .37l4.22 2.43a.69.69 0 0 0 .64 0l36.25-20.93c.19-.11.21-.28 0-.37Zm-38.29 22.1a.69.69 0 0 0-.64 0l-5.42 3.13c-.19.11-.21.28 0 .37l4.21 2.43a.69.69 0 0 0 .64 0l5.42-3.13c.19-.11.21-.27 0-.37ZM188.54 348a.69.69 0 0 0-.64 0l-5.42 3.13c-.19.11-.21.27 0 .37l4.22 2.43a.69.69 0 0 0 .64 0l5.42-3.13c.18-.11.2-.27 0-.37Zm-53.2 30.71a.73.73 0 0 0-.64 0l-5.42 3.13c-.19.1-.2.27 0 .37l4.22 2.43a.76.76 0 0 0 .64 0l5.42-3.13c.19-.11.2-.28 0-.37Zm68.11-39.32a.76.76 0 0 0-.64 0l-5.42 3.13c-.19.11-.21.28 0 .37l4.22 2.44a.7.7 0 0 0 .63 0l5.43-3.13c.18-.1.2-.27 0-.37Zm23-13.3a.69.69 0 0 0-.64 0l-4.4 2.54c-.19.11-.21.28 0 .37l4.21 2.44a.72.72 0 0 0 .64 0l4.41-2.54c.18-.11.2-.27 0-.37ZM240.91 316l4.41-2.54c.18-.11.2-.27 0-.37l-4.21-2.43a.69.69 0 0 0-.64 0l-4.4 2.54c-.19.11-.21.28 0 .37l4.21 2.44a.72.72 0 0 0 .63-.01m-26.27 1.27 4.4-2.54c.19-.11.21-.28 0-.37l-4.21-2.44a.72.72 0 0 0-.64 0l-4.41 2.54c-.18.11-.2.27 0 .37l4.21 2.43a.69.69 0 0 0 .65.01m-17.1 23.78 12.88-7.44c.18-.11.2-.27 0-.37l-4.21-2.43a.69.69 0 0 0-.64 0l-12.88 7.44c-.18.1-.2.27 0 .36l4.21 2.44a.76.76 0 0 0 .64 0m36.29-21.31a.69.69 0 0 0 .64 0l4.41-2.54c.19-.11.2-.27 0-.37l-4.22-2.43a.69.69 0 0 0-.64 0l-4.4 2.54c-.19.11-.21.28 0 .37Zm-5.38-3.49 4.41-2.55c.19-.11.2-.27 0-.37l-4.22-2.43a.69.69 0 0 0-.64 0l-4.4 2.55c-.19.1-.21.27 0 .36l4.21 2.44a.76.76 0 0 0 .64 0m-37.35 28.51 4.41-2.54c.18-.11.2-.27 0-.37l-4.21-2.43a.69.69 0 0 0-.64 0l-4.4 2.54c-.19.11-.21.28 0 .37l4.21 2.43a.69.69 0 0 0 .63 0M219.6 328a.69.69 0 0 0 .64 0l4.41-2.54c.18-.11.2-.28 0-.37l-4.22-2.44a.76.76 0 0 0-.64 0l-4.4 2.55c-.19.11-.21.27 0 .37Zm-60.69 35.39 4.41-2.55c.18-.1.2-.27 0-.36l-4.18-2.48a.76.76 0 0 0-.64 0l-4.4 2.55c-.19.11-.21.27 0 .37l4.21 2.43a.69.69 0 0 0 .6 0Zm6.44-3.72 4.4-2.54c.19-.11.21-.28 0-.37l-4.21-2.43a.69.69 0 0 0-.64 0l-4.41 2.54c-.18.11-.2.27 0 .37l4.21 2.43a.69.69 0 0 0 .65-.04Zm-12.88 7.43 4.41-2.54c.19-.11.2-.27 0-.37l-4.22-2.43a.69.69 0 0 0-.64 0l-4.4 2.54c-.19.11-.21.28 0 .37l4.21 2.44a.72.72 0 0 0 .64-.05Zm25.76-14.86 4.4-2.55c.19-.1.2-.27 0-.37l-4.22-2.43a.76.76 0 0 0-.64 0l-4.4 2.55c-.19.1-.2.27 0 .37l4.22 2.43a.76.76 0 0 0 .64-.04Zm-6.44 3.71 4.4-2.54c.19-.11.21-.27 0-.37l-4.19-2.47a.69.69 0 0 0-.64 0l-4.36 2.56c-.19.11-.2.28 0 .37l4.22 2.44a.73.73 0 0 0 .57-.03Zm12.87-7.43 4.41-2.54c.19-.11.2-.28 0-.37l-4.22-2.44a.73.73 0 0 0-.64 0l-4.4 2.54c-.19.11-.21.27 0 .37l4.19 2.42a.69.69 0 0 0 .66-.02Zm35.14-51.71a.69.69 0 0 0 .64 0l4.4-2.54c.19-.11.21-.28 0-.37l-1.12-.65a.69.69 0 0 0-.64 0l-4.41 2.54c-.18.11-.2.28 0 .37Zm-32 20.19a.69.69 0 0 0 .64 0l4.4-2.54c.19-.11.21-.28 0-.37l-4.21-2.44a.72.72 0 0 0-.64 0l-4.41 2.54c-.19.11-.2.27 0 .37Zm12.87-7.43a.76.76 0 0 0 .64 0l4.41-2.55c.18-.11.2-.27 0-.37l-4.22-2.43a.69.69 0 0 0-.64 0l-4.4 2.54c-.19.11-.21.28 0 .37Zm-20.73 12a.69.69 0 0 0 .64 0L185 319c.19-.11.2-.28 0-.37l-4.22-2.44a.76.76 0 0 0-.64 0l-4.4 2.55c-.19.11-.2.27 0 .37Zm14.3-8.26a.69.69 0 0 0 .64 0l4.4-2.54c.19-.11.2-.27 0-.37l-4.18-2.4a.69.69 0 0 0-.64 0l-4.4 2.54c-.19.11-.21.28 0 .37ZM167.06 329a.69.69 0 0 0 .64 0l4.4-2.54c.19-.11.21-.27 0-.37l-4.21-2.43a.69.69 0 0 0-.64 0l-4.41 2.54c-.18.11-.2.28 0 .37Zm6.44-3.71a.76.76 0 0 0 .64 0l4.4-2.55c.19-.11.21-.27 0-.37l-4.21-2.43a.69.69 0 0 0-.64 0l-4.41 2.54c-.19.11-.2.28 0 .37Zm33.42-21.08a.72.72 0 0 0 .64 0l4.41-2.54c.18-.11.2-.27 0-.37l-1.12-.65a.76.76 0 0 0-.64 0l-4.4 2.55c-.19.11-.21.27 0 .37Zm19.31-11.16a.69.69 0 0 0 .64 0l4.41-2.54c.19-.11.2-.27 0-.37l-1.12-.65a.76.76 0 0 0-.64 0l-4.37 2.51c-.19.1-.2.27 0 .37Zm8.86 5.12a.73.73 0 0 0 .64 0l4.4-2.54c.19-.11.21-.27 0-.37L236 292.8a.69.69 0 0 0-.64 0l-4.41 2.54c-.19.11-.2.28 0 .37Zm12.26 14.12 4.41-2.55c.18-.1.2-.27 0-.36l-4.21-2.44a.76.76 0 0 0-.64 0l-4.41 2.55c-.18.11-.2.27 0 .37l4.21 2.43a.69.69 0 0 0 .64 0m-34-11.8a.76.76 0 0 0 .64 0l4.4-2.55c.19-.1.21-.27 0-.37l-1.12-.64a.69.69 0 0 0-.64 0l-4.41 2.54c-.18.11-.2.27 0 .37Zm-52.74 32.23a.69.69 0 0 0 .64 0l4.41-2.54c.18-.11.2-.28 0-.37l-4.21-2.44a.72.72 0 0 0-.64 0l-4.41 2.54c-.18.11-.2.27 0 .37Z" style="fill:#455a64"/><path d="m179.67 365.93.91.52 23.99 13.84 42.66-24.63.89-.5-24.9-14.37z" style="fill:#263238"/><path d="m180.58 366.45 23.99 13.84 42.66-24.63-24.01-13.85z" style="fill:#37474f"/><g style="opacity:.5"><path d="m180.58 366.45 23.99 13.84 42.66-24.63-24.01-13.85z" style="fill:#263238"/></g><path d="M56.65 361.44a6.4 6.4 0 0 0 1.22.52 5.8 5.8 0 0 1-1.22-.51l-.37-.25ZM63.57 361.81a.12.12 0 0 1 .07-.05Z" style="fill:#fde047"/><path d="M246.59 203c0 1.52-.05 3.41-1 4.59-6.65 8.3-18.94 17.38-23.75 21.63 0 0-17-14.57-22.58-20-6.2-6.07-18.45-19.18-29.79-15.35 0 0-2.6 9.26-.19 15.8 1.56 4.25 10.13 11.5 17.79 17.26 6.68 5 27.46 21.89 34.25 22.68 2.79.33 8.26-3.8 15.15-10.2A190 190 0 0 0 252.32 222c2.62-3.21 7.59-9.63 10.22-12.79 9.13-11 10.41-14.86 6.18-19.89-5.76-6.84-11.69-5.9-11.66-1.61 0 5.66-2.84 8.51-2.84 8.51" style="fill:#ffa8a7"/><path d="m243.14 195.15-15-8.64a8.53 8.53 0 0 1-3.14-11.64 8.51 8.51 0 0 1 11.63-3.11l15 8.64Z" style="fill:#37474f"/><path d="M242.35 179.89a2.69 2.69 0 0 1-3.67 1l-7.1-4.1a2.68 2.68 0 0 1-1-3.68 2.69 2.69 0 0 1 3.67-1l7.1 4.1a2.69 2.69 0 0 1 1 3.68" style="fill:#455a64"/><path d="M254 189.13v-12.49a4.34 4.34 0 0 0-2-3.4l-3.45-2a4.32 4.32 0 0 0-3.93 0l-10.81 6.24a4.34 4.34 0 0 0-2 3.41v12.49a4.34 4.34 0 0 0 2 3.4l3.44 2a4.32 4.32 0 0 0 3.93 0l10.82-6.25a4.34 4.34 0 0 0 2-3.4" style="fill:#fde047"/><path d="M254 176.33c-.13-1-1-1.39-1.94-.82l-10.82 6.24a4.16 4.16 0 0 0-1.39 1.46l-7.43-4.21a4.1 4.1 0 0 1 1.39-1.46l10.81-6.25a4.38 4.38 0 0 1 3.93 0l3.45 2a4.38 4.38 0 0 1 2 3.04" style="fill:#fff;opacity:.5"/><path d="m241.19 181.75 10.81-6.24c1.08-.63 2-.12 2 1.13v12.49a4.34 4.34 0 0 1-2 3.4l-10.82 6.25c-1.09.63-2 .12-2-1.14v-12.49a4.34 4.34 0 0 1 2.01-3.4" style="opacity:.1"/><path d="M248.94 183.77a1.93 1.93 0 0 0-2.05.15 6.32 6.32 0 0 0-2.83 5 2 2 0 0 0 .85 1.88l25 14.44 3.94-7.06Z" style="fill:#455a64"/><path d="M244.69 186.45a5.7 5.7 0 0 0-.63 2.44 2 2 0 0 0 .85 1.88l25 14.44 1.77-3.17Z" style="fill:#37474f"/><path d="M271.83 198.34a6.33 6.33 0 0 0-2.84 5c0 1.84 1.27 2.59 2.84 1.69a6.34 6.34 0 0 0 2.83-5c0-1.84-1.27-2.59-2.83-1.69" style="fill:#263238"/><path d="M260.35 184.29c-1.84 0-5.47 1.57-5.49 3.37s3.27 2.33 3.27 2.33-.59.67.16 1.74 4.6 1.5 4.6 1.5-.66.66.21 1.49 6 0 6 0ZM254.22 196.17a19 19 0 0 0-.5-5.3c-.65-2.53-2.65-3.35-3.57-3.19-.72.12-.14 2.95-.9 5.8-1 3.64-2.62 5.41-2.66 9.49" style="fill:#ffa8a7"/><path d="M120.48 321.59c-.72-9 .15-18.08.55-22.89 2-23.51 16.07-33.26 19.24-43.72l38.15 6.31 9.58-1.08a148.4 148.4 0 0 1 2.45 21Z" style="fill:#fde047"/><path d="M120.48 321.59c-.72-9 .15-18.08.55-22.89 2-23.51 16.07-33.26 19.24-43.72l38.15 6.31 9.58-1.08a148.4 148.4 0 0 1 2.45 21Z" style="opacity:.5"/><path d="M188.94 241.61c8.59-9.84 6.14-18.23 2.74-25-6.79-13.61-16.14-22.93-22.13-22.63L151 196.22l-10.43 3.54-5 2.62s-5.06 4-5.31 9.89c-.27 6.41-.84 11.14 5.06 21.34l5.41 12.63a20.4 20.4 0 0 1 .19 5.67c-.6 3.08-3.9 8.65-7.35 13.41a49.4 49.4 0 0 0-4.93 8.15s5.27 7.75 20.16 10.56c13.55 2.56 36.9-1.75 41.19-10.06 0 0-.7-13.29-1.6-20.77.26-6.1.55-11.59.55-11.59" style="fill:#fafafa"/><path d="M140.61 274.44c-.26-5.23 3.89-11.54 7.13-16.53s1.14-8.54-1.21-13.27a20.92 20.92 0 0 1-1.15-17c2.4-6.13.84-14.83-2.78-23.79l-10.88 12.49-1.56 3.08c.31 3.78 1.5 8 5.11 14.22l5.41 12.63a20.4 20.4 0 0 1 .19 5.67c-.6 3.08-3.9 8.65-7.35 13.41a49.4 49.4 0 0 0-4.93 8.15s5.27 7.75 20.16 10.56a51.3 51.3 0 0 0 10.75.7c-8.93-1.21-18.66-5.82-18.89-10.32" style="fill:#ebebeb"/><path d="m153 119.61-.7 2.68a11 11 0 0 0-2.15-5.4c-4.06-5.32-12.26-5.88-18.33-1.26s-7.68 12.69-3.62 18 12.26 5.88 18.32 1.26a14.92 14.92 0 0 0 5.36-7.73 3.69 3.69 0 0 0 3.9-2.74 4 4 0 0 0-2.78-4.81" style="fill:#fde047"/><path d="m153 119.61-.7 2.68a11 11 0 0 0-2.15-5.4c-4.06-5.32-12.26-5.88-18.33-1.26s-7.68 12.69-3.62 18 12.26 5.88 18.32 1.26a14.92 14.92 0 0 0 5.36-7.73 3.69 3.69 0 0 0 3.9-2.74 4 4 0 0 0-2.78-4.81" style="opacity:.5"/><path d="M164.26 185.84h-3a29.53 29.53 0 0 1-29.55-29.53v-1.93c.52-16.58 14.06-29.61 30.25-29.1l3.42.1c16.19.51 28.89 14.36 28.38 30.93a29.54 29.54 0 0 1-29.5 29.53" style="fill:#fde047"/><path d="M164.26 185.84h-3a29.53 29.53 0 0 1-29.55-29.53v-1.93c.52-16.58 14.06-29.61 30.25-29.1l3.42.1c16.19.51 28.89 14.36 28.38 30.93a29.54 29.54 0 0 1-29.5 29.53" style="opacity:.4"/><path d="M184.12 141.51c3.35 2.12 6.93 8.5 5.95 26.48-.83 15.23-5.89 18.85-8.4 19.85s-7.28.2-11.91-.72l-.28 9.15s12.55 12.66.28 11.93-18.77-12-18.77-12v-21.82s-3.14 3.32-8.17-.25a8.78 8.78 0 0 1-1.3-13.19c3.08-2.94 8.72-1.18 9.79 3.05 0 0 7.63-.09 17.46-5.62 12.31-6.92 13.55-13.11 15.35-16.86" style="fill:#ffa8a7"/><path d="M171.87 163.07a2.11 2.11 0 1 1-2.15-2.16 2.14 2.14 0 0 1 2.15 2.16" style="fill:#263238"/><path d="m173.28 176.57 4.41 1.56a2.29 2.29 0 0 1-2.95 1.5 2.44 2.44 0 0 1-1.46-3.06" style="fill:#f28f8f"/><path d="m188.56 156.32-4.44-1.61a2.27 2.27 0 0 1 2.95-1.46 2.48 2.48 0 0 1 1.49 3.07M187.15 162.14a2.14 2.14 0 0 1-2.07 2.23 2.19 2.19 0 1 1 2.07-2.23" style="fill:#263238"/><path d="m177.17 161.23-.06 12.4 6.59-1.82zM169.76 187.12c-4.88-.79-14.88-4-16.33-8a10.4 10.4 0 0 0 3.38 5.2c2.93 2.67 12.85 5.9 12.85 5.9Z" style="fill:#f28f8f"/><path d="M140.56 199.76c-11.64 3.42-13.6 5.58-19 17-5 10.52-8.85 17.68-13.23 28.59-9.22-9.45-21.37-21.86-24.48-28.74-.66-1.47-1.42-3.1-1-4.65 1.22-4.12.1-6.4.24-10.36.12-3.08 1.1-4.71.42-5-.87-.45-3-.54-4.42 1.79a18.1 18.1 0 0 0-1.7 4.71 36.4 36.4 0 0 1-1.71-9.9c-.33-8-2.71-11-10.43-4.29-4.84 4.23-6 10.59-.25 24.38 1.67 4 5.16 9.79 8 14.44 6.12 9.91 21.77 30.06 29.17 39.85a9.3 9.3 0 0 0 11.15 3c2.48-1.11 2.87-2 4.68-3.93 3.19-3.41 17.09-29.82 17.09-29.82s7.61-10.28 8.3-17.16c1.61-15.8-2.83-19.91-2.83-19.91" style="fill:#ffa8a7"/><path d="M352.68 165.89a1 1 0 0 0-.07-.29s0-.06 0-.09l-11.83-23.15 11.3-5a1.3 1.3 0 0 0 .3-.21 1.2 1.2 0 0 0 .14-.18s0 0 0-.06a1 1 0 0 0 .08-.23 1 1 0 0 0 0-.17.7.7 0 0 0 0-.21 1.4 1.4 0 0 0 0-.2.1.1 0 0 1 0-.05l-8.14-22.13 7.8-6.27a1.08 1.08 0 0 0 .17-1.52 1.09 1.09 0 0 0-1.53-.17l-7.23 5.81-4.9-13.32a1.08 1.08 0 1 0-2 .75l5.15 14-12.44 10a1.2 1.2 0 0 0-.25.29s0 .05 0 .07a1 1 0 0 0-.1.3 1 1 0 0 0 0 .15 1 1 0 0 0 0 .23.8.8 0 0 0 .05.16.4.4 0 0 0 0 .12l8.58 16.81-15.68 6.93s-.06 0-.09.06l-.21.15a1.4 1.4 0 0 1-.2.23 1 1 0 0 0-.05.13s0 .06-.05.1 0 .06 0 .09a1 1 0 0 0 0 .25 1 1 0 0 0 0 .18 1 1 0 0 0 .09.25s0 .09.05.12l12 19.22-19 4.37h-.06a1.3 1.3 0 0 0-.29.14l-.06.05a1.1 1.1 0 0 0-.25.28s0 0 0 .05a1 1 0 0 0 0 .11 1 1 0 0 0-.06.22 1.1 1.1 0 0 0 0 .36v.08a1.3 1.3 0 0 0 .15.32l15.49 21.45-22.35 2a.6.6 0 0 0-.13 0h-.1a1.4 1.4 0 0 0-.32.16 1.3 1.3 0 0 0-.22.25v.05a.4.4 0 0 1 0 .07 1 1 0 0 0-.08.29 1.3 1.3 0 0 0 0 .34v.1a1 1 0 0 0 .14.27v.06l19 23.63-25.75-.18a1.5 1.5 0 0 0-.22 0h-.07a1 1 0 0 0-.33.16l-.08.07a1 1 0 0 0-.2.22 1.6 1.6 0 0 0-.09.31s0 0 0 .05a1.1 1.1 0 0 0 0 .32v.11a1.2 1.2 0 0 0 .12.25l.06.09 22.45 25.77-29.24-1.86a.5.5 0 0 0-.13 0 1 1 0 0 0-.27 0 .7.7 0 0 0-.19.09 1 1 0 0 0-.17.09 1 1 0 0 0-.19.22s-.06.05-.08.08a1 1 0 0 0-.08.23 1.3 1.3 0 0 0 0 .19v.16a2 2 0 0 0 0 .24 2 2 0 0 0 .09.18 1 1 0 0 0 .1.18.7.7 0 0 0 .19.16.6.6 0 0 0 .11.11l59.58 34.39h.15a1.1 1.1 0 0 0 .39.08 1.1 1.1 0 0 0 .33-.06h.1a.8.8 0 0 0 .23-.14s0 0 .05 0a1 1 0 0 0 .21-.25.8.8 0 0 0 .08-.22c0-.06 0-.12.05-.18a2 2 0 0 0 0-.21 1 1 0 0 0 0-.2 1.4 1.4 0 0 0-.09-.17.8.8 0 0 0-.11-.2l-26-29.84 25.1 2h.1a1.3 1.3 0 0 0 .27 0h.09l.17-.07.09-.06a.8.8 0 0 0 .14-.12l.08-.09.09-.12a1.3 1.3 0 0 0 .1-.34.4.4 0 0 0 0-.11 1.2 1.2 0 0 0 0-.27v-.11a1 1 0 0 0-.13-.27.3.3 0 0 0 0-.07l-22.49-28 21.64.16a.8.8 0 0 0 .27 0h.1l.17-.07.09-.07.13-.11.08-.1.09-.11a.75.75 0 0 0 .1-.33.3.3 0 0 0 0-.09 1 1 0 0 0 0-.29v-.1a1.3 1.3 0 0 0-.15-.32l-19-26.23 18.19-1.65h.22l.13-.05.12-.07.11-.08.1-.09a.5.5 0 0 0 .09-.12l.07-.08a.9.9 0 0 0 .09-.32.2.2 0 0 0 0-.08 1.2 1.2 0 0 0 0-.32.13.13 0 0 1 0-.06 1.7 1.7 0 0 0-.12-.28l-15.42-24.59 14.74-3.39a1.2 1.2 0 0 0 .38-.19l.06-.05a1 1 0 0 0 .24-.27s0 0 0-.05a.5.5 0 0 0 0-.12 1 1 0 0 0 .06-.29.8.8 0 0 0 .01-.6M349.57 134l-17.48-10.09 10.63-8.55Zm-16.77-7.18 16.43 9.49-9.45 4.17Zm16.2 36.41-24.05-13.88 13.84-6.11Zm-2.46 117-49.78-28.74 26.59 2.13ZM304.77 229l42.15 24.34-22.52-1.81Zm42.39 22-43.4-25 23.42.16Zm-35.39-47.55 35.76 20.64-19.3-.14Zm36 18.29-37-21.35 20.23-1.81Zm-29-43.87 29.36 16.95-16.06 1.46Zm29.62 14.6-30.53-17.63 17-3.91Zm-22.6-40.17 22.91 13.23-12.78 2.94Z" style="fill:#fde047"/><path d="M352.68 165.89a1 1 0 0 0-.07-.29s0-.06 0-.09l-11.83-23.15 11.3-5a1.3 1.3 0 0 0 .3-.21 1.2 1.2 0 0 0 .14-.18s0 0 0-.06a1 1 0 0 0 .08-.23 1 1 0 0 0 0-.17.7.7 0 0 0 0-.21 1.4 1.4 0 0 0 0-.2.1.1 0 0 1 0-.05l-8.14-22.13 7.8-6.27a1.08 1.08 0 0 0 .17-1.52 1.09 1.09 0 0 0-1.53-.17l-7.23 5.81-4.9-13.32a1.08 1.08 0 1 0-2 .75l5.15 14-12.44 10a1.2 1.2 0 0 0-.25.29s0 .05 0 .07a1 1 0 0 0-.1.3 1 1 0 0 0 0 .15 1 1 0 0 0 0 .23.8.8 0 0 0 .05.16.4.4 0 0 0 0 .12l8.58 16.81-15.68 6.93s-.06 0-.09.06l-.21.15a1.4 1.4 0 0 1-.2.23 1 1 0 0 0-.05.13s0 .06-.05.1 0 .06 0 .09a1 1 0 0 0 0 .25 1 1 0 0 0 0 .18 1 1 0 0 0 .09.25s0 .09.05.12l12 19.22-19 4.37h-.06a1.3 1.3 0 0 0-.29.14l-.06.05a1.1 1.1 0 0 0-.25.28s0 0 0 .05a1 1 0 0 0 0 .11 1 1 0 0 0-.06.22 1.1 1.1 0 0 0 0 .36v.08a1.3 1.3 0 0 0 .15.32l15.49 21.45-22.35 2a.6.6 0 0 0-.13 0h-.1a1.4 1.4 0 0 0-.32.16 1.3 1.3 0 0 0-.22.25v.05a.4.4 0 0 1 0 .07 1 1 0 0 0-.08.29 1.3 1.3 0 0 0 0 .34v.1a1 1 0 0 0 .14.27v.06l19 23.63-25.75-.18a1.5 1.5 0 0 0-.22 0h-.07a1 1 0 0 0-.33.16l-.08.07a1 1 0 0 0-.2.22 1.6 1.6 0 0 0-.09.31s0 0 0 .05a1.1 1.1 0 0 0 0 .32v.11a1.2 1.2 0 0 0 .12.25l.06.09 22.45 25.77-29.24-1.86a.5.5 0 0 0-.13 0 1 1 0 0 0-.27 0 .7.7 0 0 0-.19.09 1 1 0 0 0-.17.09 1 1 0 0 0-.19.22s-.06.05-.08.08a1 1 0 0 0-.08.23 1.3 1.3 0 0 0 0 .19v.16a2 2 0 0 0 0 .24 2 2 0 0 0 .09.18 1 1 0 0 0 .1.18.7.7 0 0 0 .19.16.6.6 0 0 0 .11.11l59.58 34.39h.15a1.1 1.1 0 0 0 .39.08 1.1 1.1 0 0 0 .33-.06h.1a.8.8 0 0 0 .23-.14s0 0 .05 0a1 1 0 0 0 .21-.25.8.8 0 0 0 .08-.22c0-.06 0-.12.05-.18a2 2 0 0 0 0-.21 1 1 0 0 0 0-.2 1.4 1.4 0 0 0-.09-.17.8.8 0 0 0-.11-.2l-26-29.84 25.1 2h.1a1.3 1.3 0 0 0 .27 0h.09l.17-.07.09-.06a.8.8 0 0 0 .14-.12l.08-.09.09-.12a1.3 1.3 0 0 0 .1-.34.4.4 0 0 0 0-.11 1.2 1.2 0 0 0 0-.27v-.11a1 1 0 0 0-.13-.27.3.3 0 0 0 0-.07l-22.49-28 21.64.16a.8.8 0 0 0 .27 0h.1l.17-.07.09-.07.13-.11.08-.1.09-.11a.75.75 0 0 0 .1-.33.3.3 0 0 0 0-.09 1 1 0 0 0 0-.29v-.1a1.3 1.3 0 0 0-.15-.32l-19-26.23 18.19-1.65h.22l.13-.05.12-.07.11-.08.1-.09a.5.5 0 0 0 .09-.12l.07-.08a.9.9 0 0 0 .09-.32.2.2 0 0 0 0-.08 1.2 1.2 0 0 0 0-.32.13.13 0 0 1 0-.06 1.7 1.7 0 0 0-.12-.28l-15.42-24.59 14.74-3.39a1.2 1.2 0 0 0 .38-.19l.06-.05a1 1 0 0 0 .24-.27s0 0 0-.05a.5.5 0 0 0 0-.12 1 1 0 0 0 .06-.29.8.8 0 0 0 .01-.6M349.57 134l-17.48-10.09 10.63-8.55Zm-16.77-7.18 16.43 9.49-9.45 4.17Zm16.2 36.41-24.05-13.88 13.84-6.11Zm-2.46 117-49.78-28.74 26.59 2.13ZM304.77 229l42.15 24.34-22.52-1.81Zm42.39 22-43.4-25 23.42.16Zm-35.39-47.55 35.76 20.64-19.3-.14Zm36 18.29-37-21.35 20.23-1.81Zm-29-43.87 29.36 16.95-16.06 1.46Zm29.62 14.6-30.53-17.63 17-3.91Zm-22.6-40.17 22.91 13.23-12.78 2.94Z" style="opacity:.2"/><path d="M350.55 166.05a1 1 0 0 0 .06.29s0 .08 0 .12v.05a1 1 0 0 0 .23.27l.06.05a1.4 1.4 0 0 0 .39.19l14.74 3.39L350.7 195a1.7 1.7 0 0 0-.12.28.13.13 0 0 0 0 .06 1.2 1.2 0 0 0 0 .32v.08a1.2 1.2 0 0 0 .1.32l.06.08.09.12.11.09.11.08.12.07.13.05h.22l18.18 1.65-18.94 26.23a1 1 0 0 0-.15.32s0 .07 0 .1a1 1 0 0 0 0 .29v.09a.9.9 0 0 0 .11.33 1 1 0 0 0 .09.11.6.6 0 0 0 .07.1l.14.11.09.07.17.07h.09a.9.9 0 0 0 .28 0l21.63-.16-22.49 28a.3.3 0 0 0 0 .07 1 1 0 0 0-.13.27.4.4 0 0 0 0 .11.8.8 0 0 0 0 .27v.42a1 1 0 0 0 .11.34l.09.12.08.09a.8.8 0 0 0 .14.12l.08.06.17.07h.1a1 1 0 0 0 .26 0h.11l25.09-2-26 29.84a1.3 1.3 0 0 0-.12.2c0 .06-.06.11-.08.17a.7.7 0 0 0 0 .2.8.8 0 0 0 0 .21 1 1 0 0 0 0 .18 1.4 1.4 0 0 0 .07.22.9.9 0 0 0 .21.25h.05a1 1 0 0 0 .24.14h.09a1.3 1.3 0 0 0 .33.06 1.1 1.1 0 0 0 .39-.08s.05 0 .08 0h.07L411.74 251l.11-.11a1 1 0 0 0 .19-.16c0-.05.06-.12.1-.18a2 2 0 0 0 .09-.18 2 2 0 0 0 0-.24 1 1 0 0 0 0-.16v-.19a1.6 1.6 0 0 0-.08-.23l-.07-.08a1.4 1.4 0 0 0-.19-.22 1.4 1.4 0 0 0-.17-.09.8.8 0 0 0-.19-.09 1.3 1.3 0 0 0-.27 0 .6.6 0 0 0-.13 0l-29.18 2.34 22.46-25.77.06-.09a1.2 1.2 0 0 0 .12-.25v-.11a1.1 1.1 0 0 0 0-.32v-.05a.9.9 0 0 0-.09-.31h-.05a1 1 0 0 0-.19-.22l-.08-.07a1 1 0 0 0-.33-.16h-.07a1.5 1.5 0 0 0-.22 0l-25.75.18 19-23.63v-.06a1.4 1.4 0 0 0 .19-.55.4.4 0 0 0 0-.1 1 1 0 0 0 0-.34 1 1 0 0 0-.08-.29.4.4 0 0 1 0-.07v-.05a1 1 0 0 0-.22-.25 1.3 1.3 0 0 0-.33-.16h-.22l-22.35-2 15.49-21.45a1.3 1.3 0 0 0 .15-.32.2.2 0 0 1 0-.08 1.1 1.1 0 0 0 0-.36 1 1 0 0 0-.05-.22.4.4 0 0 0-.06-.11.1.1 0 0 1 0-.05.9.9 0 0 0-.24-.28l-.07-.05a1.2 1.2 0 0 0-.28-.14h-.06l-19-4.37 12-19.22a.4.4 0 0 0 0-.12.8.8 0 0 0 .09-.25.6.6 0 0 0 0-.18 2 2 0 0 0 0-.25v-.09c0-.03 0-.06-.06-.1a1 1 0 0 0 0-.13.6.6 0 0 0-.08-.08.6.6 0 0 0-.13-.15 1 1 0 0 0-.2-.15l-.09-.06-15.68-6.93 8.47-17.11v-.12a.8.8 0 0 0 .05-.16 1 1 0 0 0 0-.23 1 1 0 0 0 0-.15 1.5 1.5 0 0 0-.1-.3s0 0 0-.07a1 1 0 0 0-.26-.29l-12.43-10 5.15-14a1.09 1.09 0 0 0-2-.75l-4.89 13.32-7.24-5.81a1.08 1.08 0 1 0-1.35 1.69l7.8 6.27L350.6 136v.05a1.4 1.4 0 0 0 0 .2 2 2 0 0 0 0 .21v.17a1 1 0 0 0 .08.23s0 0 0 .06a1.2 1.2 0 0 0 .14.18 1.1 1.1 0 0 0 .3.21l11.29 5-11.82 23.15v.09a1 1 0 0 0-.07.29.4.4 0 0 0 .03.21m10-50.74 10.63 8.55L353.67 134Zm2.94 25.12-9.49-4.17 16.42-9.49Zm1 2.81 13.84 6.11-24.05 13.88Zm15.41 110.43 26.59-2.13-49.79 28.74Zm-1.06-2.09-22.51 1.81 42.15-24.34Zm-2.78-25.44 23.41-.16L356.08 251ZM375 224l-19.29.14 35.76-20.64Zm-2.8-25.4 20.23 1.84-37 21.35Zm-1-2.27-16.06-1.46 29.35-16.95ZM368.35 171l17 3.91-30.5 17.59Zm-1-2.46-12.79-2.94 22.92-13.23Z" style="fill:#fde047"/><path d="M350.55 166.05a1 1 0 0 0 .06.29s0 .08 0 .12v.05a1 1 0 0 0 .23.27l.06.05a1.4 1.4 0 0 0 .39.19l14.74 3.39L350.7 195a1.7 1.7 0 0 0-.12.28.13.13 0 0 0 0 .06 1.2 1.2 0 0 0 0 .32v.08a1.2 1.2 0 0 0 .1.32l.06.08.09.12.11.09.11.08.12.07.13.05h.22l18.18 1.65-18.94 26.23a1 1 0 0 0-.15.32s0 .07 0 .1a1 1 0 0 0 0 .29v.09a.9.9 0 0 0 .11.33 1 1 0 0 0 .09.11.6.6 0 0 0 .07.1l.14.11.09.07.17.07h.09a.9.9 0 0 0 .28 0l21.63-.16-22.49 28a.3.3 0 0 0 0 .07 1 1 0 0 0-.13.27.4.4 0 0 0 0 .11.8.8 0 0 0 0 .27v.42a1 1 0 0 0 .11.34l.09.12.08.09a.8.8 0 0 0 .14.12l.08.06.17.07h.1a1 1 0 0 0 .26 0h.11l25.09-2-26 29.84a1.3 1.3 0 0 0-.12.2c0 .06-.06.11-.08.17a.7.7 0 0 0 0 .2.8.8 0 0 0 0 .21 1 1 0 0 0 0 .18 1.4 1.4 0 0 0 .07.22.9.9 0 0 0 .21.25h.05a1 1 0 0 0 .24.14h.09a1.3 1.3 0 0 0 .33.06 1.1 1.1 0 0 0 .39-.08s.05 0 .08 0h.07L411.74 251l.11-.11a1 1 0 0 0 .19-.16c0-.05.06-.12.1-.18a2 2 0 0 0 .09-.18 2 2 0 0 0 0-.24 1 1 0 0 0 0-.16v-.19a1.6 1.6 0 0 0-.08-.23l-.07-.08a1.4 1.4 0 0 0-.19-.22 1.4 1.4 0 0 0-.17-.09.8.8 0 0 0-.19-.09 1.3 1.3 0 0 0-.27 0 .6.6 0 0 0-.13 0l-29.18 2.34 22.46-25.77.06-.09a1.2 1.2 0 0 0 .12-.25v-.11a1.1 1.1 0 0 0 0-.32v-.05a.9.9 0 0 0-.09-.31h-.05a1 1 0 0 0-.19-.22l-.08-.07a1 1 0 0 0-.33-.16h-.07a1.5 1.5 0 0 0-.22 0l-25.75.18 19-23.63v-.06a1.4 1.4 0 0 0 .19-.55.4.4 0 0 0 0-.1 1 1 0 0 0 0-.34 1 1 0 0 0-.08-.29.4.4 0 0 1 0-.07v-.05a1 1 0 0 0-.22-.25 1.3 1.3 0 0 0-.33-.16h-.22l-22.35-2 15.49-21.45a1.3 1.3 0 0 0 .15-.32.2.2 0 0 1 0-.08 1.1 1.1 0 0 0 0-.36 1 1 0 0 0-.05-.22.4.4 0 0 0-.06-.11.1.1 0 0 1 0-.05.9.9 0 0 0-.24-.28l-.07-.05a1.2 1.2 0 0 0-.28-.14h-.06l-19-4.37 12-19.22a.4.4 0 0 0 0-.12.8.8 0 0 0 .09-.25.6.6 0 0 0 0-.18 2 2 0 0 0 0-.25v-.09c0-.03 0-.06-.06-.1a1 1 0 0 0 0-.13.6.6 0 0 0-.08-.08.6.6 0 0 0-.13-.15 1 1 0 0 0-.2-.15l-.09-.06-15.68-6.93 8.47-17.11v-.12a.8.8 0 0 0 .05-.16 1 1 0 0 0 0-.23 1 1 0 0 0 0-.15 1.5 1.5 0 0 0-.1-.3s0 0 0-.07a1 1 0 0 0-.26-.29l-12.43-10 5.15-14a1.09 1.09 0 0 0-2-.75l-4.89 13.32-7.24-5.81a1.08 1.08 0 1 0-1.35 1.69l7.8 6.27L350.6 136v.05a1.4 1.4 0 0 0 0 .2 2 2 0 0 0 0 .21v.17a1 1 0 0 0 .08.23s0 0 0 .06a1.2 1.2 0 0 0 .14.18 1.1 1.1 0 0 0 .3.21l11.29 5-11.82 23.15v.09a1 1 0 0 0-.07.29.4.4 0 0 0 .03.21m10-50.74 10.63 8.55L353.67 134Zm2.94 25.12-9.49-4.17 16.42-9.49Zm1 2.81 13.84 6.11-24.05 13.88Zm15.41 110.43 26.59-2.13-49.79 28.74Zm-1.06-2.09-22.51 1.81 42.15-24.34Zm-2.78-25.44 23.41-.16L356.08 251ZM375 224l-19.29.14 35.76-20.64Zm-2.8-25.4 20.23 1.84-37 21.35Zm-1-2.27-16.06-1.46 29.35-16.95ZM368.35 171l17 3.91-30.5 17.59Zm-1-2.46-12.79-2.94 22.92-13.23Z" style="opacity:.2"/><path d="M351.62 295.17a2.71 2.71 0 0 1-2.71-2.71V104.38a2.71 2.71 0 0 1 5.42 0v188.08a2.71 2.71 0 0 1-2.71 2.71M290 259.59a2.72 2.72 0 0 1-2.6-3.5L335.82 96a2.71 2.71 0 0 1 5.18 1.54l-48.42 160.12a2.72 2.72 0 0 1-2.58 1.93M413.26 259.59a2.6 2.6 0 0 0 .78-.12 2.71 2.71 0 0 0 1.81-3.38L367.42 96a2.71 2.71 0 1 0-5.18 1.57l48.42 160.12a2.72 2.72 0 0 0 2.6 1.9" style="fill:#fde047"/><path d="m350.35 106.07-15.26-8.81a2.82 2.82 0 0 1-1.27-2.19v-3.93a2.79 2.79 0 0 1 1.27-2.14l15.26-8.82a2.82 2.82 0 0 1 2.53 0L368.15 89a2.78 2.78 0 0 1 1.26 2.19v3.93a2.81 2.81 0 0 1-1.26 2.19l-15.27 8.81a2.82 2.82 0 0 1-2.53-.05" style="fill:#fde047"/><path d="m350.35 106.07-15.26-8.81a2.82 2.82 0 0 1-1.27-2.19v-3.93a2.79 2.79 0 0 1 1.27-2.14l15.26-8.82a2.82 2.82 0 0 1 2.53 0L368.15 89a2.78 2.78 0 0 1 1.26 2.19v3.93a2.81 2.81 0 0 1-1.26 2.19l-15.27 8.81a2.82 2.82 0 0 1-2.53-.05" style="opacity:.30000000000000004"/><path d="m335.09 89 15.26-8.82a2.82 2.82 0 0 1 2.53 0L368.15 89c.7.4.7 1 0 1.46l-15.27 8.81a2.82 2.82 0 0 1-2.53 0l-15.26-8.81c-.7-.46-.7-1.11 0-1.46" style="fill:#fde047;opacity:.5"/><path d="M351.62 99.52v6.85a2.7 2.7 0 0 1-1.27-.3l-15.26-8.82a2.79 2.79 0 0 1-1.27-2.19v-3.92a2.8 2.8 0 0 1 1-2c-.45.41-.38.93.23 1.3l15.26 8.82a2.7 2.7 0 0 0 1.31.26" style="opacity:.30000000000000004"/><path d="M354.83 50.93a3.48 3.48 0 0 0-3.59.08c-3.39 1.77-6.32 7.33-6.55 12.43-.13 3 .73 5.21 2.16 6.1.62.39 3.06 1.95 3.71 2.35a3.47 3.47 0 0 0 3.56-.09c3.4-1.77 6.33-7.33 6.55-12.43.13-3-.71-5.18-2.12-6.09Z" style="fill:#fde047"/><path d="M354.83 50.93a3.48 3.48 0 0 0-3.59.08c-3.39 1.77-6.32 7.33-6.55 12.43-.13 3 .73 5.21 2.16 6.1.62.39 3.06 1.95 3.71 2.35a3.47 3.47 0 0 0 3.56-.09c3.4-1.77 6.33-7.33 6.55-12.43.13-3-.71-5.18-2.12-6.09Z" style="opacity:.30000000000000004"/><path d="M359.38 37.17c-2.56-1.61-5.82-1.66-9.44.22-6.19 3.22-11.8 11.24-14.86 20.31-.62 1.84-.42 3.63.46 4.24 1 .71 2.8 1.72 3.68 2.32 1.1.76 2.84-.64 3.62-3C345 54.88 349 49.23 353.31 47a7.4 7.4 0 0 1 4.63-.92 9.5 9.5 0 0 1 1.34 2.47 1.63 1.63 0 0 0 .61.82l3.7 2.34c.79.5 2-.1 2.92-1.59a6.2 6.2 0 0 0 .84-4.9 11.23 11.23 0 0 0-4.22-5.63Z" style="fill:#fde047"/><path d="M359.38 37.17c-2.56-1.61-5.82-1.66-9.44.22-6.19 3.22-11.8 11.24-14.86 20.31-.62 1.84-.42 3.63.46 4.24 1 .71 2.8 1.72 3.68 2.32 1.1.76 2.84-.64 3.62-3C345 54.88 349 49.23 353.31 47a7.4 7.4 0 0 1 4.63-.92 9.5 9.5 0 0 1 1.34 2.47 1.63 1.63 0 0 0 .61.82l3.7 2.34c.79.5 2-.1 2.92-1.59a6.2 6.2 0 0 0 .84-4.9 11.23 11.23 0 0 0-4.22-5.63Z" style="opacity:.30000000000000004"/><path d="M373.7 30.82a16.8 16.8 0 0 0-5.91-7L364 21.45c-4.12-2.6-9.37-2.7-15.18.32-9.21 4.8-17.62 16.24-22.74 29.53-.75 2-.64 4 .3 4.62 1.06.75 2.72 1.66 3.67 2.32 1.07.75 2.72-.55 3.57-2.77 4.14-10.87 11-20.23 18.54-24.14 3.88-2 7.45-2.33 10.47-1.22a15.2 15.2 0 0 1 3.11 4.39 1.6 1.6 0 0 0 .57.67l3.68 2.33c.8.51 2-.06 2.92-1.56 1.09-1.67 1.4-3.88.79-5.12" style="fill:#fde047"/><path d="M373.7 30.82a16.8 16.8 0 0 0-5.91-7L364 21.45c-4.12-2.6-9.37-2.7-15.18.32-9.21 4.8-17.62 16.24-22.74 29.53-.75 2-.64 4 .3 4.62 1.06.75 2.72 1.66 3.67 2.32 1.07.75 2.72-.55 3.57-2.77 4.14-10.87 11-20.23 18.54-24.14 3.88-2 7.45-2.33 10.47-1.22a15.2 15.2 0 0 1 3.11 4.39 1.6 1.6 0 0 0 .57.67l3.68 2.33c.8.51 2-.06 2.92-1.56 1.09-1.67 1.4-3.88.79-5.12" style="opacity:.30000000000000004"/><path d="M360.67 59.37c-.22 5.1-3.15 10.66-6.55 12.43s-6-.94-5.74-6 3.16-10.66 6.55-12.43 5.96.9 5.74 6" style="fill:#fde047"/><path d="M353.63 39.72C347.44 42.94 341.83 51 338.77 60c-.62 1.84-.42 3.63.46 4.23 1.1.76 2.84-.64 3.62-3 2.15-6.35 6.15-12 10.46-14.23s8-.56 9.66 3.88c.6 1.61 2.31 1.22 3.54-.76a6.2 6.2 0 0 0 .84-4.9c-2.35-6.31-7.53-8.72-13.72-5.5" style="fill:#fde047"/><path d="M352.54 24.1c-9.2 4.79-17.61 16.24-22.73 29.53-.75 1.95-.65 4 .3 4.62 1.07.75 2.72-.55 3.57-2.77 4.14-10.87 11-20.23 18.54-24.14s13.9-1.45 17.27 5.5c.69 1.42 2.29 1 3.48-.89 1-1.69 1.33-3.9.72-5.14-4.12-8.48-11.92-11.51-21.15-6.71M337.86 412.06l-7.86-4.54a4.78 4.78 0 0 1-2.17-3.75v-37.21a4.78 4.78 0 0 1 2.17-3.75l97.22-56.13a4.79 4.79 0 0 1 4.33 0l7.85 4.53a4.78 4.78 0 0 1 2.17 3.75v37.22a4.8 4.8 0 0 1-2.16 3.75l-97.23 56.13a4.79 4.79 0 0 1-4.32 0" style="fill:#fde047"/><path d="m342.19 369.84 97.22-56.13c1.2-.69 2.17-.13 2.17 1.25v37.22a4.8 4.8 0 0 1-2.16 3.75l-97.23 56.13c-1.19.69-2.16.13-2.16-1.25v-37.22a4.8 4.8 0 0 1 2.16-3.75" style="fill:#fde047"/><path d="M341.69 412.29a4.84 4.84 0 0 1-3.83-.23l-7.86-4.54a4.78 4.78 0 0 1-2.17-3.75v-37.21a4.3 4.3 0 0 1 .64-2.13l12.18 7a4.44 4.44 0 0 0-.63 2.14v37.21c-.02 1.22.72 1.79 1.67 1.51" style="opacity:.15"/><path d="M441.56 314.62c-.15-1.13-1.06-1.53-2.15-.9l-97.22 56.13a4.6 4.6 0 0 0-1.53 1.61l-12.18-7a4.43 4.43 0 0 1 1.53-1.62l97.22-56.13a4.79 4.79 0 0 1 4.33 0l7.85 4.54a4.8 4.8 0 0 1 2.15 3.37" style="fill:#fff;opacity:.4"/><path d="M365 386.22a.42.42 0 0 1 .55 0 1 1 0 0 1 .23.71v4.69a2.26 2.26 0 0 1-.23 1 1.47 1.47 0 0 1-.55.67L351.69 401a.41.41 0 0 1-.54 0 .92.92 0 0 1-.24-.71v-28.64a2.2 2.2 0 0 1 .24-1 1.4 1.4 0 0 1 .54-.67l3.77-2.18a.42.42 0 0 1 .54 0 .94.94 0 0 1 .23.71v22.71ZM370.46 390.15a.42.42 0 0 1-.55 0 .94.94 0 0 1-.22-.71v-28.63a2.3 2.3 0 0 1 .22-1 1.53 1.53 0 0 1 .55-.67l3.77-2.17a.4.4 0 0 1 .54 0 .9.9 0 0 1 .23.7v28.59a2.2 2.2 0 0 1-.23 1 1.45 1.45 0 0 1-.54.67ZM386.56 380.86c-.75.43-1.25.13-1.52-.89l-5.87-24.28c0-.18-.06-.3-.07-.35a1 1 0 0 1 0-.17 1.9 1.9 0 0 1 .18-.8 1.25 1.25 0 0 1 .45-.54l3.62-2.09c.38-.22.66-.26.82-.1a1 1 0 0 1 .3.55l4 17.17 4-21.78a3.4 3.4 0 0 1 .3-.9 2 2 0 0 1 .82-.85l3.63-2.09a.33.33 0 0 1 .44 0 .75.75 0 0 1 .19.58 1 1 0 0 1 0 .18c0 .07 0 .21-.07.44l-5.86 31a3.7 3.7 0 0 1-1.53 2.65ZM416.31 356.6a.42.42 0 0 1 .55 0 1 1 0 0 1 .23.71V362a2.3 2.3 0 0 1-.23 1 1.47 1.47 0 0 1-.55.67l-13.62 7.87a.42.42 0 0 1-.55 0 1 1 0 0 1-.23-.71v-28.62a2.3 2.3 0 0 1 .23-1 1.4 1.4 0 0 1 .55-.67l13.39-7.74a.42.42 0 0 1 .55 0 1 1 0 0 1 .23.71v4.69a2.26 2.26 0 0 1-.23 1 1.47 1.47 0 0 1-.55.67l-8.85 5.13v4.79l8.22-4.75a.41.41 0 0 1 .54 0 .92.92 0 0 1 .24.71v4.69a2.2 2.2 0 0 1-.24 1 1.4 1.4 0 0 1-.54.67l-8.22 4.75v4.95ZM428.49 333.88c3.54-2 6.41-.38 6.41 3.7a14.19 14.19 0 0 1-6.41 11.11c-3.54 2-6.41.39-6.41-3.7a14.19 14.19 0 0 1 6.41-11.11" style="fill:#fff"/></svg>