<svg xmlns="http://www.w3.org/2000/svg" viewBox="0 0 500 500"><path d="M165.19 75.75s-75.77 38.61-113.56 98.1-34.8 136 11.12 192.78S196.44 416 269.93 452s154.57 28.58 189.32-47.66-17.65-104.77-26.65-192.98S344.07-6 165.19 75.75" style="fill:#ef4444"/><path d="M165.19 75.75s-75.77 38.61-113.56 98.1-34.8 136 11.12 192.78S196.44 416 269.93 452s154.57 28.58 189.32-47.66-17.65-104.77-26.65-192.98S344.07-6 165.19 75.75" style="fill:#fff;opacity:.7000000000000001"/><path d="M141 151v-5.24a13.59 13.59 0 0 0-13.56-13.57h-3.7a13.59 13.59 0 0 0-13.57 13.57V151h-1.24v27.76h33.31V151Zm-22.83-5.24a5.58 5.58 0 0 1 5.57-5.57h3.7a5.58 5.58 0 0 1 5.56 5.57V151h-14.83Z" style="fill:none;stroke:#263238;stroke-miterlimit:10"/><path d="M128.32 163a2.73 2.73 0 1 0-4.28 2.24v7.66h3.11v-7.66a2.71 2.71 0 0 0 1.17-2.24ZM72.56 113.61l40.9-23.69M179.09 205.78l-37.22 21.56M139.21 89.57l39.91 22.96M110.68 226.77l-38.15-21.95M60.1 135.54l.06 47.29M193.32 182.63l-.07-46.91M94.22 177.79a37.61 37.61 0 0 0 32 17.79h.4M159.16 139.77a37.61 37.61 0 0 0-32.56-19.45" style="fill:none;stroke:#263238;stroke-miterlimit:10"/><path d="M126.6 195.57A37.57 37.57 0 0 0 158 178M159.16 139.77A37.6 37.6 0 0 1 158 178M93.07 140.09a37.67 37.67 0 0 0 1.15 37.7M93.07 140.09a37.62 37.62 0 0 1 33.13-19.78h.4M113.46 89.92a16 16 0 0 0 12.74 6.33h.4M139.21 89.57a16 16 0 0 1-12.61 6.66M139.21 89.57a16 16 0 1 0-25.75.35M126.6 214.73a16 16 0 0 1 15.27 12.61M110.68 226.77a16 16 0 0 1 15.52-12.06h.4M110.68 226.77a15.9 15.9 0 0 0-.52 4 16 16 0 1 0 31.71-3.41M193.25 135.72h.2a16 16 0 1 0-14.33-23.2M179.62 127.79a15.9 15.9 0 0 1-.5-15.26M193.25 135.72a16 16 0 0 1-13.63-7.93M60.1 135.54a16 16 0 0 0 11.57-7.94M72.56 113.61a16 16 0 1 0-14.84 22.12 15.6 15.6 0 0 0 2.38-.19M72.56 113.61a16 16 0 0 1-.89 14M193.32 182.63a16 16 0 0 0-13.71 8M193.32 182.63h.13a16 16 0 1 1-14.36 23.15" style="fill:none;stroke:#263238;stroke-miterlimit:10"/><path d="M179.61 190.59a15.91 15.91 0 0 0-.52 15.19M60.16 182.83a16.4 16.4 0 0 0-2.44-.2 16 16 0 1 0 14.81 22.19M60.16 182.83a16 16 0 0 1 11.61 8.1M72.53 204.82a16 16 0 0 0-.76-13.89M126.6 214.73v-19.16M126.6 96.23v24.09M179.61 190.59 158.04 178M93.07 140.09l-21.4-12.49M94.22 177.79l-22.45 13.14M179.62 127.79l-20.46 11.98M193.45 119.69l-.93.55M127.78 299.95v-28.17l-24.41-14.09-24.4 14.09v28.17l24.4 14.09zM152.4 342.27v-28.18L128 300l-24.4 14.09v28.18l24.4 14.09z" style="fill:none;stroke:#263238;stroke-miterlimit:10"/><path d="M128.07 384.46v-28.18l-24.4-14.09-24.41 14.09v28.18l24.41 14.09zM113.52 281.56v-3.26a8.45 8.45 0 0 0-8.43-8.44h-2.31a8.45 8.45 0 0 0-8.43 8.44v3.26h-.77v17.26h20.71v-17.26Zm-14.19-3.26a3.46 3.46 0 0 1 3.45-3.46h2.31a3.46 3.46 0 0 1 3.45 3.46v3.26h-9.21Z" style="fill:none;stroke:#263238;stroke-miterlimit:10"/><path d="M105.64 289a1.7 1.7 0 1 0-2.66 1.4v4.76h1.92v-4.76a1.69 1.69 0 0 0 .74-1.4ZM136.86 324.05v-3.26a8.44 8.44 0 0 0-8.43-8.43h-2.3a8.45 8.45 0 0 0-8.44 8.43v3.26h-.77v17.26h20.71v-17.26Zm-14.19-3.26a3.46 3.46 0 0 1 3.46-3.46h2.3a3.47 3.47 0 0 1 3.46 3.46v3.26h-9.22Z" style="fill:none;stroke:#263238;stroke-miterlimit:10"/><path d="M129 331.54a1.7 1.7 0 1 0-2.66 1.39v4.76h1.93v-4.76a1.68 1.68 0 0 0 .73-1.39ZM113.32 366.25V363a8.45 8.45 0 0 0-8.43-8.44h-2.3a8.45 8.45 0 0 0-8.44 8.44v3.26h-.77v17.26h20.72v-17.27ZM99.13 363a3.46 3.46 0 0 1 3.46-3.46h2.3a3.46 3.46 0 0 1 3.46 3.46v3.26h-9.22Z" style="fill:none;stroke:#263238;stroke-miterlimit:10"/><path d="M105.44 373.73a1.7 1.7 0 1 0-2.66 1.4v4.76h1.93v-4.76a1.71 1.71 0 0 0 .73-1.4Z" style="fill:none;stroke:#263238;stroke-miterlimit:10"/><path d="m50.74 309.4.33-.58c-.37-.45-.77-.88-1.17-1.28-7-3.19-13.95-1-16.4 0-.25.25-.5.52-.74.79l.38.77c.1-.04 9.23-4.48 17.6.3" style="fill:#263238"/><path d="M54.85 315.78a24 24 0 0 0-1-2.61 18.37 18.37 0 0 0-11.23-4c-5.33 0-10.56 2.75-13.15 4.35q-.45 1-.81 2.07c.86-.61 7.47-5.14 14-5.14a17.5 17.5 0 0 1 12.19 5.33" style="fill:#263238"/><path d="M30.3 333.36c0-.07-3.25-7 .9-13.5a13.74 13.74 0 0 1 9.29-6.3c3.58-.65 6.65.13 8 1.13a27.6 27.6 0 0 1 5.08 5.43 24 24 0 0 0 2.66 3.1c0-.69-.09-1.36-.17-2-.47-.55-1-1.18-1.48-1.85a28.3 28.3 0 0 0-5.32-5.67c-1.61-1.2-5-2.09-9-1.37a15 15 0 0 0-10.14 6.87c-4.53 7.12-1.12 14.44-1 14.74Z" style="fill:#263238"/><path d="M54.7 324.77a22 22 0 0 1-1.46-2.2c-1.86-3-4.18-6.83-11-6.83a9.45 9.45 0 0 0-7.5 3.17c-2.58 3-3 7.35-2.54 10.43a7.61 7.61 0 0 1-2.56 7q.28.58.6 1.14a8.92 8.92 0 0 0 3.22-8.28c-.42-2.8-.05-6.73 2.25-9.4a8.2 8.2 0 0 1 6.56-2.8c6.07 0 8 3.16 9.87 6.22a24 24 0 0 0 1.56 2.33 8.2 8.2 0 0 0 2.4 2.09c0-.47.09-1 .11-1.44a7.4 7.4 0 0 1-1.51-1.43" style="fill:#263238"/><path d="M50 324.86a16 16 0 0 0-.89-1.62c-1.21-1.82-4.06-6.08-9.88-3.69-4.57 1.89-4.14 6.69-3.75 10.92.11 1.23.22 2.39.22 3.48 0 3-2.16 5.08-3.64 6.13.28.35.56.67.85 1C34.56 339.85 37 337.5 37 334c0-1.15-.11-2.39-.22-3.59-.38-4.17-.74-8.1 3-9.62 4.85-2 7 1.26 8.33 3.21.23.36.5.89.81 1.5A17.8 17.8 0 0 0 55 333c.13-.43.25-.87.36-1.31a16.83 16.83 0 0 1-5.36-6.83" style="fill:#263238"/><path d="M49 330.36a7.5 7.5 0 0 1-1.5-2.63 9.4 9.4 0 0 0-3-4.33 3.13 3.13 0 0 0-3.5-.4c-1.85 1-3 3.77-2.82 6.61.28 3.56 8.16 9.85 11.48 12.35.31-.29.61-.61.9-.93-3.85-2.9-10.89-8.73-11.1-11.52-.18-2.31.74-4.63 2.15-5.38a1.85 1.85 0 0 1 2.15.29 8.2 8.2 0 0 1 2.56 3.8 8.65 8.65 0 0 0 1.78 3 59 59 0 0 0 5.84 4.57c.18-.4.36-.79.52-1.21a55 55 0 0 1-5.46-4.22" style="fill:#263238"/><path d="M42 326.77c.27 4.41 7.26 10.79 9.73 12.92.25-.34.5-.7.73-1.06-3.15-2.72-9-8.43-9.18-11.94ZM43.68 339.36c-.94-1.1-1.69-2-3-2-2 0-5 3.31-6.4 5a13 13 0 0 0 1 .78c1.77-2.11 4.24-4.54 5.38-4.54.67 0 1.13.49 2 1.52a17.7 17.7 0 0 0 4.21 3.75 14 14 0 0 0 1.21-.76 16.4 16.4 0 0 1-4.4-3.75" style="fill:#263238"/><path d="M44.7 344.88c-.92-1.38-2.44-3.43-3.53-3.7-1.3-.33-2.45 1.69-3.18 3.44.41.15.82.28 1.24.39a6.24 6.24 0 0 1 1.63-2.59c.46.11 1.51 1.35 2.49 2.76a10 10 0 0 0 1.35-.3" style="fill:#263238"/><path d="M63.66 317.78h27.15M63.66 323.28h27.15M63.66 328.79h27.15M63.66 334.3h27.15" style="fill:none;stroke:#263238;stroke-miterlimit:10"/><path d="M397.5 104h1.56a4.2 4.2 0 0 1 4.2 4.2v49.2h-10v-49.2a4.2 4.2 0 0 1 4.24-4.2Z" style="fill:#fff;stroke:#263238;stroke-miterlimit:10"/><path d="M398.44 104H400a4.2 4.2 0 0 1 4.2 4.2v49.2h-10v-49.2a4.2 4.2 0 0 1 4.24-4.2Z" style="fill:#a3a3a3;stroke:#263238;stroke-miterlimit:10"/><path d="m372.7 150.3 17.3-10.47 4.65-3.71s2.42-5.8 1-11-2.9-5.08-2.9-5.08l-16 7.38s5.4 15.41-4.05 22.88" style="fill:#263238;stroke:#263238;stroke-linecap:round;stroke-linejoin:round"/><path d="m364.58 126.57 8.83-2.18c-4.53-9-13.87-13.58-21.14-10.18-6.37 3-9.08 11.08-6.95 19.28Z" style="fill:#fff;stroke:#263238;stroke-miterlimit:10"/><ellipse cx="364.72" cy="133.22" rx="14.85" ry="18.85" style="fill:#4f4f4f;stroke:#263238;stroke-linecap:round;stroke-linejoin:round" transform="rotate(-25.04 364.72 133.229)"/><path d="M368.49 132c1.91 4.09.84 8.63-2.38 10.14s-7.39-.59-9.3-4.68-.85-8.64 2.38-10.14 7.39.56 9.3 4.68" style="fill:#263238;stroke:#263238;stroke-linecap:round;stroke-linejoin:round"/><path d="M408.47 108.76c-4.2-9-13.12-13.8-20.38-11.22v-.12L355.15 113l-5.57 2.66a21.79 21.79 0 0 1 25.65 11.86c0 .1.1.21.14.31a3 3 0 0 0 4 1.52l11.45-5.1s3.95 8.37-.78 15.56l12-7.31c.32-.12.64-.25.95-.4 7.44-3.45 9.89-13.91 5.48-23.34Z" style="fill:#fff;stroke:#263238;stroke-miterlimit:10"/><path d="M408.17 104h1.56a4.2 4.2 0 0 1 4.2 4.2v49.2H404v-49.2a4.2 4.2 0 0 1 4.17-4.2Z" style="fill:#fff;stroke:#263238;stroke-miterlimit:10"/><path d="M409.11 104h1.56a4.2 4.2 0 0 1 4.2 4.2v49.2h-10v-49.2a4.2 4.2 0 0 1 4.24-4.2Z" style="fill:#fff;stroke:#263238;stroke-miterlimit:10"/><path d="M379.48 156.68h42.82a1.5 1.5 0 0 1 1.5 1.5v2.06H378v-2.06a1.5 1.5 0 0 1 1.48-1.5Z" style="fill:#fff;stroke:#263238;stroke-miterlimit:10"/><path d="M371.27 159.29h59.23a1.5 1.5 0 0 1 1.5 1.5v2.06h-62.23v-2.06a1.5 1.5 0 0 1 1.5-1.5Z" style="fill:#fff;stroke:#263238;stroke-miterlimit:10"/><circle cx="291.46" cy="109.39" r="31.38" style="fill:#ef4444;stroke:#263238;stroke-miterlimit:10" transform="rotate(-13.47 291.374 109.365)"/><circle cx="291.46" cy="98.74" r="10.65" style="fill:#263238;stroke:#263238;stroke-miterlimit:10" transform="rotate(-76.66 291.443 98.743)"/><path d="M308.56 129.17a17.1 17.1 0 0 0-34.2 0Z" style="fill:#263238;stroke:#263238;stroke-miterlimit:10"/><path d="m321.33 114.8 18.25 7.61" style="fill:#fff;stroke:#263238;stroke-miterlimit:10"/><path d="m386.33 426.33-31.05-50-62.41 1.12 30.05 48.95a9.54 9.54 0 0 1-2 12.31l-7.09.5h-82.56V441H378.2a9.57 9.57 0 0 0 8.13-14.67" style="fill:#263238;stroke:#263238;stroke-linecap:round;stroke-linejoin:round"/><path d="m351.75 377.36 31.05 50a9.57 9.57 0 0 1-8.13 14.64h-63.43a9.57 9.57 0 0 0 8.15-14.58l-30.05-48.95Z" style="fill:#fff;stroke:#263238;stroke-linecap:round;stroke-linejoin:round"/><path d="m350 374.54-62.41 1.11 11.56 18.83h63.23z" style="fill:#263238;stroke:#263238;stroke-linecap:round;stroke-linejoin:round"/><rect width="265.27" height="224.03" x="180.11" y="163.42" rx="2.91" style="fill:#263238;stroke:#263238;stroke-linecap:round;stroke-linejoin:round" transform="rotate(180 312.74 275.435)"/><rect width="265.27" height="224.03" x="170.08" y="163.42" rx="9.06" style="fill:#fff;stroke:#263238;stroke-linecap:round;stroke-linejoin:round" transform="rotate(180 302.71 275.435)"/><path d="M178.73 163.42h248a8.66 8.66 0 0 1 8.65 8.66v175.25h-265.3V172.08a8.66 8.66 0 0 1 8.65-8.66" style="fill:#263238;stroke:#263238;stroke-linecap:round;stroke-linejoin:round"/><path d="M181.22 172.34H424.2v162.73H181.22z" style="fill:#fff;stroke:#263238;stroke-linecap:round;stroke-linejoin:round" transform="rotate(180 302.71 253.7)"/><path d="M181.67 249h242.66M191.87 244.39a2.44 2.44 0 1 1-2.43-2.44 2.43 2.43 0 0 1 2.43 2.44Z" style="fill:none;stroke:#263238;stroke-miterlimit:10"/><circle cx="200.22" cy="244.39" r="2.43" style="fill:none;stroke:#263238;stroke-miterlimit:10"/><circle cx="211" cy="244.39" r="2.43" style="fill:none;stroke:#263238;stroke-miterlimit:10"/><path d="M224.21 244.39a2.43 2.43 0 1 1-2.43-2.44 2.43 2.43 0 0 1 2.43 2.44ZM235 244.39a2.44 2.44 0 1 1-2.44-2.44 2.43 2.43 0 0 1 2.44 2.44ZM365.41 244.39A2.44 2.44 0 1 1 363 242a2.43 2.43 0 0 1 2.41 2.39ZM376.19 244.39a2.44 2.44 0 1 1-2.43-2.44 2.43 2.43 0 0 1 2.43 2.44ZM387 244.39a2.43 2.43 0 1 1-2.43-2.44 2.43 2.43 0 0 1 2.43 2.44ZM397.76 244.39a2.44 2.44 0 1 1-2.44-2.44 2.43 2.43 0 0 1 2.44 2.44Z" style="fill:none;stroke:#263238;stroke-miterlimit:10"/><circle cx="406.1" cy="244.39" r="2.43" style="fill:none;stroke:#263238;stroke-miterlimit:10"/><circle cx="416.88" cy="244.39" r="2.43" style="fill:none;stroke:#263238;stroke-miterlimit:10"/><rect width="124.67" height="18" x="233.67" y="305.67" rx="3" style="fill:#ef4444;stroke:#263238;stroke-linecap:round;stroke-linejoin:round"/><path d="m262.87 314-.37-2.31h1.26l-.36 2.31 2.09-1.05.39 1.19-2.3.39 1.64 1.64-1 .74-1.08-2.07-1.08 2.07-1-.74 1.63-1.64-2.29-.39.39-1.19ZM270.58 314l-.36-2.31h1.26l-.37 2.31 2.09-1.05.39 1.19-2.29.39 1.63 1.64-1 .74-1.08-2.07-1.08 2.07-1-.74 1.64-1.64-2.3-.39.39-1.19ZM278.29 314l-.36-2.31h1.26l-.36 2.31 2.08-1.05.4 1.19-2.3.39 1.64 1.64-1 .74-1.08-2.07-1.08 2.07-1-.74 1.64-1.64-2.29-.39.39-1.19ZM286 314l-.37-2.31h1.27l-.37 2.31 2.09-1.05.39 1.19-2.3.39 1.64 1.64-1 .74-1.08-2.07-1.07 2.07-1-.74 1.64-1.64-2.3-.39.39-1.19ZM293.72 314l-.36-2.31h1.26l-.37 2.31 2.09-1.05.39 1.19-2.29.39 1.64 1.64-1 .74-1.08-2.09-1.08 2.07-1-.74 1.64-1.64-2.3-.39.4-1.19ZM301.44 314l-.37-2.31h1.26L302 314l2.09-1.05.39 1.19-2.3.39 1.64 1.64-1 .74-1.08-2.07-1.08 2.07-1-.74 1.63-1.64-2.29-.39.39-1.19ZM309.15 314l-.36-2.31h1.26l-.37 2.31 2.09-1.05.39 1.19-2.29.39 1.63 1.64-1 .74-1.08-2.07-1.08 2.07-1-.74 1.64-1.64-2.3-.39.39-1.19ZM316.86 314l-.36-2.31h1.26l-.36 2.31 2.08-1.05.4 1.19-2.3.39 1.64 1.64-1 .74-1.08-2.07-1.08 2.07-1-.74 1.64-1.64-2.29-.39.39-1.19ZM324.58 314l-.37-2.31h1.26l-.36 2.31 2.09-1.05.39 1.19-2.3.39 1.64 1.64-1 .74-1.08-2.07-1.07 2.07-1-.74 1.64-1.64-2.3-.39.39-1.19ZM332.29 314l-.36-2.31h1.26l-.37 2.31 2.09-1.05.39 1.19-2.29.39 1.64 1.64-1 .74-1.08-2.07-1.08 2.07-1-.74 1.64-1.64-2.3-.39.4-1.19Z" style="fill:#263238"/><circle cx="297.17" cy="240.45" r="59.67" style="fill:#ef4444;stroke:#263238;stroke-linecap:round;stroke-linejoin:round" transform="rotate(-45 297.17 240.458)"/><circle cx="297.17" cy="240.45" r="40.78" style="fill:#263238;stroke:#263238;stroke-linecap:round;stroke-linejoin:round" transform="rotate(-45 297.17 240.458)"/><circle cx="293.46" cy="240.45" r="40.78" style="fill:#fff;stroke:#263238;stroke-linecap:round;stroke-linejoin:round" transform="rotate(-21.92 293.471 240.46)"/><circle cx="293.65" cy="240.45" r="28.71" style="fill:#ef4444;stroke:#263238;stroke-linecap:round;stroke-linejoin:round" transform="rotate(-45 293.65 240.456)"/><path d="m244 219.42.69-1.52 8.28 3.77 1.14-2.49 1.38.62-1.83 4ZM248.72 215.35a2.53 2.53 0 1 1 2.63-4.32l4.71 2.86a2.54 2.54 0 1 1-2.63 4.33Zm5.67 1.5c.65.39 1.07.26 1.34-.2s.2-.89-.44-1.28l-4.9-3c-.65-.4-1.07-.26-1.34.19s-.2.89.44 1.28ZM256.61 208.15l3.94 4.1-1.47 1.75-8.88-5.93 1-1.24 7 4.71-5.89-6 1-1.22 7 4.78-5.85-6.1.94-1.12 7.36 7.74-1.43 1.69ZM283.47 194.26l-.72-7.59 2.25-.56 2.57 10.3-1.53.38-1.85-7.38.73 7.66-1.53.38-3-7 1.81 7.28-1.41.36-2.57-10.3 2.25-.56ZM289.46 190.09l2.28-.23.15 1.51-2.28.23.31 3.09 2.87-.28.15 1.51-4.53.44-1.05-10.56 4.53-.45.15 1.51-2.87.28ZM293.88 185.27l2.64.06c1.66 0 2.46 1 2.42 2.68l-.13 5.37c0 1.7-.88 2.6-2.54 2.56l-2.64-.06Zm1.63 1.56-.18 7.57h.94c.53 0 .86-.26.88-1l.13-5.52c0-.76-.3-1-.83-1.05ZM300.83 185.61l1.66.2-1.27 10.54-1.66-.2ZM306 186.41l-1.75 8c-.16.75.11 1.08.63 1.2s.9-.09 1.06-.83l1.75-8 1.54.33-1.73 7.9c-.36 1.66-1.39 2.42-3 2.07s-2.22-1.48-1.86-3.14l1.72-7.89ZM312.11 196l3.76-6.63 2.17.83-3.81 9.91-1.47-.57 2.73-7.1-3.81 6.69-1.47-.57 1.54-7.45-2.7 7-1.36-.52 3.81-9.91 2.17.83ZM331.23 214.53l-.94-1.37 8.75-6 .94 1.37-3.75 2.57 1.07 1.57 3.75-2.57 1 1.4-8.75 6-1-1.4 3.75-2.58L335 212ZM343 213.25l.8 1.46-9.31 5.11-.8-1.47ZM341.4 220.63l.93 2.15-3.1 1.33c-1.56.67-2.78.27-3.43-1.23s-.09-2.67 1.46-3.34l5.07-2.18c1.57-.68 2.79-.28 3.44 1.22s.09 2.67-1.47 3.34l-.95.41-.62-1.45 1-.45c.69-.3.82-.72.62-1.2s-.61-.68-1.31-.38l-5.26 2.26c-.7.3-.82.72-.61 1.2s.6.69 1.29.39l1.8-.77-.3-.7ZM337.6 227.39l-.46-1.6 10.22-2.88.45 1.6-4.38 1.24.52 1.82 4.37-1.23.46 1.63-10.21 2.88-.46-1.63 4.38-1.24-.52-1.82Z" style="fill:#263238"/><path d="m264.85 192.98 6.1 9.86M331.46 195.8l-7.03 9.38" style="fill:none;stroke:#263238;stroke-miterlimit:10"/><path d="m328.41 222.27-25.27 4.97 7.25 13.43z" style="fill:#263238;stroke:#263238;stroke-miterlimit:10"/><path d="M107.56 430.74h7.72v2.57h-7.72zM117.85 430.74h7.72v2.57h-7.72zM128.13 430.74h7.72v2.57h-7.72zM138.42 430.74h7.72v2.57h-7.72zM148.71 430.74h7.72v2.57h-7.72zM159 430.74h7.72v2.57H159zM169.29 430.74h7.72v2.57h-7.72zM179.58 430.74h7.72v2.57h-7.72zM189.87 430.74h7.72v2.57h-7.72zM200.16 430.74h7.72v2.57h-7.72zM210.45 430.74h7.72v2.57h-7.72zM220.74 430.74h7.72v2.57h-7.72zM231.03 430.74h7.72v2.57h-7.72zM241.32 430.74h7.72v2.57h-7.72zM251.6 430.74h7.72v2.57h-7.72zM261.89 430.74h7.72v2.57h-7.72zM272.18 430.74h7.72v2.57h-7.72zM282.47 430.74h7.72v2.57h-7.72zM292.76 430.74h7.72v2.57h-7.72zM303.05 430.74h7.72v2.57h-7.72zM313.34 430.74h7.72v2.57h-7.72zM103.57 433.68h223.1V442h-223.1z" style="fill:#fff;stroke:#263238;stroke-linecap:round;stroke-linejoin:round"/><path d="M272.25 433.68h54.42V442h-54.42z" style="fill:#263238;stroke:#263238;stroke-linecap:round;stroke-linejoin:round"/><path d="M429.88 399.42s-26.5-46.53-20.38-58.36 21.73 9.46 21.73 9.46-13.58-43.37-6.11-62.29 20.38 0 21.06 13.4-2.72 36.28-2.72 36.28 5.43-47.32 18.34-33.12-16.3 61.51-16.3 61.51 19.7-11 19 3.15-23.78 26.81-23.78 26.81" style="fill:#ef4444"/><path d="M430.1 390.74s-24.51-22.87-12.57-33.12 18.23 11 18.23 11-13.2-65.45 8.17-67.82 5.66 56.78 5.66 56.78 18.23-25.23 17-4.73-28.29 37.85-28.29 37.85M442.14 386.58l-16.57-17.95M438.69 387.96l4.49-52.47M438 384.16l14.84-19.67" style="fill:none;stroke:#263238;stroke-miterlimit:10"/><path d="m456.97 442 2.5-61.5h-45.83l2.5 61.5z" style="fill:#263238"/><path d="M476 442H37" style="fill:none;stroke:#263238;stroke-miterlimit:10"/></svg>