<svg xmlns="http://www.w3.org/2000/svg" viewBox="0 0 700 500"><defs><clipPath id="a"><path d="M561.49 331.77h-17.13v-1.52a5.21 5.21 0 0 1 5.49-5.21l6.71.37a5.21 5.21 0 0 1 4.93 5.2Z" style="fill:#fde047;stroke:#263238;stroke-linecap:round;stroke-linejoin:round;stroke-width:1.25903px"/></clipPath><clipPath id="b"><path d="M552.28 309h-96.67a1.71 1.71 0 0 1-1.73-1.94l6.84-64.26a2.2 2.2 0 0 1 2.14-1.93h96.67a1.7 1.7 0 0 1 1.73 1.93l-6.84 64.26a2.21 2.21 0 0 1-2.14 1.94" style="fill:#fde047;stroke:#263238;stroke-linecap:round;stroke-linejoin:round;stroke-width:1.25903px"/></clipPath><clipPath id="c"><path d="M550.47 302.74h-91.16a1.49 1.49 0 0 1-1.51-1.69l6-56.07a1.92 1.92 0 0 1 1.87-1.69h91.13a1.5 1.5 0 0 1 1.51 1.69l-6 56.07a1.93 1.93 0 0 1-1.84 1.69" style="fill:#fde047;stroke:#263238;stroke-linecap:round;stroke-linejoin:round;stroke-width:1.25903px"/></clipPath><clipPath id="d"><path d="M510.89 331.77h64.58v9.74h-64.58z" style="fill:#fde047;stroke:#263238;stroke-linecap:round;stroke-linejoin:round;stroke-width:1.25903px"/></clipPath><clipPath id="e"><path d="M340.51 331.77h188.8v9.74h-188.8z" style="fill:#fde047;stroke:#263238;stroke-linecap:round;stroke-linejoin:round;stroke-width:1.25903px"/></clipPath><clipPath id="f"><path d="M460.29 327.76h53.9v4.01h-53.9z" style="fill:#fde047;stroke:#263238;stroke-linecap:round;stroke-linejoin:round;stroke-width:1.25903px"/></clipPath><clipPath id="g"><path d="M113.07 331.57h89.82v119.52h-89.82z" style="fill:#fde047;stroke:#263238;stroke-linecap:round;stroke-linejoin:round;stroke-width:1.25903px" transform="rotate(180 157.98 391.335)"/></clipPath><clipPath id="h"><path d="M95.93 331.57h17.14v119.52H95.93z" style="fill:#fde047;stroke:#263238;stroke-linecap:round;stroke-linejoin:round;stroke-width:1.25903px" transform="rotate(180 104.5 391.335)"/></clipPath><clipPath id="i"><path d="M252.3 120.66a5.69 5.69 0 1 1-5.68-5.69 5.68 5.68 0 0 1 5.68 5.69" style="fill:none;stroke:#263238;stroke-linecap:round;stroke-linejoin:round;stroke-width:1.25903px"/></clipPath><clipPath id="j"><circle cx="281.95" cy="120.66" r="5.69" style="fill:none;stroke:#263238;stroke-linecap:round;stroke-linejoin:round;stroke-width:1.25903px"/></clipPath><clipPath id="k"><rect width="271.6" height="153.59" x="233.38" y="132.62" rx="9.09" style="fill:#fde047;stroke:#263238;stroke-linecap:round;stroke-linejoin:round;stroke-width:1.25903px"/></clipPath><clipPath id="l"><rect width="83.14" height="141" x="327.17" y="138.91" rx="2.79" style="fill:#fde047;stroke:#263238;stroke-linecap:round;stroke-linejoin:round;stroke-width:1.25903px"/></clipPath><clipPath id="m"><path d="M238.61 271.6h26.12c.59 0 1.06-.25 1.06-.56v-27.1c0-.31-.47-.56-1.06-.56h-26.12c-.58 0-1.06.25-1.06.56V271c0 .35.45.6 1.06.6" style="fill:#fde047;stroke:#263238;stroke-linecap:round;stroke-linejoin:round;stroke-width:1.25903px"/></clipPath><clipPath id="n"><path d="M248.68 205.84h26.12c.59 0 1.07-.25 1.07-.56v-27.1c0-.31-.48-.56-1.07-.56h-26.12c-.58 0-1.06.25-1.06.56v27.1c0 .31.48.56 1.06.56" style="fill:#fde047;stroke:#263238;stroke-linecap:round;stroke-linejoin:round;stroke-width:1.25903px"/></clipPath><clipPath id="o"><path d="M281.38 173h26.12c.59 0 1.06-.25 1.06-.56V145.3c0-.31-.47-.56-1.06-.56h-26.12c-.59 0-1.06.25-1.06.56v27.1c0 .31.47.6 1.06.6" style="fill:#fde047;stroke:#263238;stroke-linecap:round;stroke-linejoin:round;stroke-width:1.25903px"/></clipPath><clipPath id="p"><path d="m185.84 288.76 46.45-3.84-24.22 96.3-36.65 57.5-14.78-7.72s17.22-42.36 29.81-57.89c0 0 2.68-30.75 5.12-46.85 0 0-4.57-22.49-5.73-37.5" style="fill:#858585;stroke:#263238;stroke-linecap:round;stroke-linejoin:round;stroke-width:1.25903px"/></clipPath><clipPath id="q"><path d="M167 422.71a64 64 0 0 0-7.1-2.83 43.8 43.8 0 0 0-6.33 12.45c8.55 5.3 13.43-9.62 13.43-9.62" style="fill:#fde047;stroke:#263238;stroke-linecap:round;stroke-linejoin:round;stroke-width:1.25903px"/></clipPath><clipPath id="r"><path d="M269.59 428.54a64 64 0 0 0-6.75 3.57 43.7 43.7 0 0 0 5.39 12.89c9.56-3.07 1.36-16.46 1.36-16.46" style="fill:#fde047;stroke:#263238;stroke-linecap:round;stroke-linejoin:round;stroke-width:1.25903px"/></clipPath><clipPath id="s"><path d="M174.7 185.51a30.33 30.33 0 0 0-6.92 15c-1.57 9.44-9 29.57-6.61 31.07s24.87 18 24.87 18l9.86-9.13-14-17.84 6.94-30.32Z" style="fill:#fde047;stroke:#263238;stroke-linecap:round;stroke-linejoin:round;stroke-width:1.25903px"/></clipPath></defs><path d="M592.93 126.54C565.48 54.32 503.57 21 429.82 39.7 369.49 55 340.81 106 308.76 124.31c-46.49 26.63-116.46 16.47-177.14 70.44-38.48 34.22-34 112.66 2.19 169 28.6 44.47 101.44 88.41 168 47.69 90.7-55.54 58.1-136.1 98.88-163.76 45-30.53 96.54 8.68 163.73-24.45 26.71-13.23 43.97-56.02 28.51-96.69" style="fill:#fde047"/><path d="M592.93 126.54C565.48 54.32 503.57 21 429.82 39.7 369.49 55 340.81 106 308.76 124.31c-46.49 26.63-116.46 16.47-177.14 70.44-38.48 34.22-34 112.66 2.19 169 28.6 44.47 101.44 88.41 168 47.69 90.7-55.54 58.1-136.1 98.88-163.76 45-30.53 96.54 8.68 163.73-24.45 26.71-13.23 43.97-56.02 28.51-96.69" style="fill:#fff;opacity:.7000000000000001"/><ellipse cx="228.69" cy="464.55" rx="91.8" ry="6.71" style="fill:#fde047"/><path d="M87.13 451.1h520.68" style="fill:none;stroke:#263238;stroke-linecap:round;stroke-linejoin:round;stroke-width:1.25903px"/><path d="M561.49 331.77h-17.13v-1.52a5.21 5.21 0 0 1 5.49-5.21l6.71.37a5.21 5.21 0 0 1 4.93 5.2Z" style="fill:#fde047"/><g style="clip-path:url(#a)"><path d="M561.49 331.77h-17.13v-1.52a5.21 5.21 0 0 1 5.49-5.21l6.71.37a5.21 5.21 0 0 1 4.93 5.2Z" style="fill:#fff;opacity:.8"/></g><path d="M561.49 331.77h-17.13v-1.52a5.21 5.21 0 0 1 5.49-5.21l6.71.37a5.21 5.21 0 0 1 4.93 5.2Z" style="fill:none;stroke:#263238;stroke-linecap:round;stroke-linejoin:round;stroke-width:1.25903px"/><path d="M515.24 296.36a2.53 2.53 0 0 0-2.53-2.41H495.4a2.54 2.54 0 0 0-2.53 2.41l4.13 36.08h25.84ZM562.25 240.9h-6.45l-7.24 68.1H555a2.22 2.22 0 0 0 2.15-1.94l6.85-64.23a1.7 1.7 0 0 0-1.75-1.93" style="fill:#fde047;stroke:#263238;stroke-linecap:round;stroke-linejoin:round;stroke-width:1.25903px"/><path d="M552.28 309h-96.67a1.71 1.71 0 0 1-1.73-1.94l6.84-64.26a2.2 2.2 0 0 1 2.14-1.93h96.67a1.7 1.7 0 0 1 1.73 1.93l-6.84 64.26a2.21 2.21 0 0 1-2.14 1.94" style="fill:#fde047"/><g style="clip-path:url(#b)"><path d="M552.28 309h-96.67a1.71 1.71 0 0 1-1.73-1.94l6.84-64.26a2.2 2.2 0 0 1 2.14-1.93h96.67a1.7 1.7 0 0 1 1.73 1.93l-6.84 64.26a2.21 2.21 0 0 1-2.14 1.94" style="fill:#fff;opacity:.4"/></g><path d="M552.28 309h-96.67a1.71 1.71 0 0 1-1.73-1.94l6.84-64.26a2.2 2.2 0 0 1 2.14-1.93h96.67a1.7 1.7 0 0 1 1.73 1.93l-6.84 64.26a2.21 2.21 0 0 1-2.14 1.94" style="fill:none;stroke:#263238;stroke-linecap:round;stroke-linejoin:round;stroke-width:1.25903px"/><path d="M523.79 329.63H492a1.4 1.4 0 0 0-1.4 1.4h0a1.41 1.41 0 0 0 1.4 1.41h31.78a1.41 1.41 0 0 0 1.4-1.41h0a1.4 1.4 0 0 0-1.39-1.4" style="fill:#fde047;stroke:#263238;stroke-linecap:round;stroke-linejoin:round;stroke-width:1.25903px"/><path d="M550.47 302.74h-91.16a1.49 1.49 0 0 1-1.51-1.69l6-56.07a1.92 1.92 0 0 1 1.87-1.69h91.13a1.5 1.5 0 0 1 1.51 1.69l-6 56.07a1.93 1.93 0 0 1-1.84 1.69" style="fill:#fde047"/><g style="clip-path:url(#c)"><path d="M550.47 302.74h-91.16a1.49 1.49 0 0 1-1.51-1.69l6-56.07a1.92 1.92 0 0 1 1.87-1.69h91.13a1.5 1.5 0 0 1 1.51 1.69l-6 56.07a1.93 1.93 0 0 1-1.84 1.69" style="fill:#fff;opacity:.8"/></g><path d="M550.47 302.74h-91.16a1.49 1.49 0 0 1-1.51-1.69l6-56.07a1.92 1.92 0 0 1 1.87-1.69h91.13a1.5 1.5 0 0 1 1.51 1.69l-6 56.07a1.93 1.93 0 0 1-1.84 1.69" style="fill:none;stroke:#263238;stroke-linecap:round;stroke-linejoin:round;stroke-width:1.25903px"/><path d="M344.82 341.51h7.45V449.6a1.49 1.49 0 0 1-1.49 1.49h-4.46a1.49 1.49 0 0 1-1.49-1.49V341.51z" style="fill:#fde047;stroke:#263238;stroke-linecap:round;stroke-linejoin:round;stroke-width:1.25903px"/><path d="M510.89 331.77h64.58v9.74h-64.58z" style="fill:#fde047"/><g style="clip-path:url(#d)"><path d="M510.89 331.77h64.58v9.74h-64.58z" style="fill:#fff;opacity:.4"/></g><path d="M510.89 331.77h64.58v9.74h-64.58z" style="fill:none;stroke:#263238;stroke-linecap:round;stroke-linejoin:round;stroke-width:1.25903px"/><path d="M391 341.51h7.45V449.6a1.49 1.49 0 0 1-1.49 1.49h-4.46a1.49 1.49 0 0 1-1.5-1.49zM563.72 341.51h7.45V449.6a1.49 1.49 0 0 1-1.49 1.49h-4.46a1.49 1.49 0 0 1-1.49-1.49V341.51h0Z" style="fill:#fde047;stroke:#263238;stroke-linecap:round;stroke-linejoin:round;stroke-width:1.25903px"/><path d="M340.51 331.77h188.8v9.74h-188.8z" style="fill:#fde047"/><g style="clip-path:url(#e)"><path d="M340.51 331.77h188.8v9.74h-188.8z" style="fill:#fff;opacity:.7000000000000001"/></g><path d="M340.51 331.77h188.8v9.74h-188.8z" style="fill:none;stroke:#263238;stroke-linecap:round;stroke-linejoin:round;stroke-width:1.25903px"/><path d="M517.56 341.51H525V449.6a1.49 1.49 0 0 1-1.49 1.49H519a1.49 1.49 0 0 1-1.49-1.49V341.51z" style="fill:#fde047;stroke:#263238;stroke-linecap:round;stroke-linejoin:round;stroke-width:1.25903px"/><path d="M460.29 327.76h53.9v4.01h-53.9z" style="fill:#fde047"/><g style="clip-path:url(#f)"><path d="M460.29 327.76h53.9v4.01h-53.9z" style="fill:#fff;opacity:.4"/></g><path d="M460.29 327.76h53.9v4.01h-53.9z" style="fill:none;stroke:#263238;stroke-linecap:round;stroke-linejoin:round;stroke-width:1.25903px"/><path d="M113.07 331.57h89.82v119.52h-89.82z" style="fill:#fde047" transform="rotate(180 157.98 391.335)"/><g style="clip-path:url(#g)"><path d="M113.07 331.57h89.82v119.52h-89.82z" style="fill:#fff;opacity:.7000000000000001" transform="rotate(180 157.98 391.335)"/></g><path d="M113.07 331.57h89.82v119.52h-89.82z" style="fill:none;stroke:#263238;stroke-linecap:round;stroke-linejoin:round;stroke-width:1.25903px" transform="rotate(180 157.98 391.335)"/><path d="M95.93 331.57h17.14v119.52H95.93z" style="fill:#fde047" transform="rotate(180 104.5 391.335)"/><g style="clip-path:url(#h)"><path d="M95.93 331.57h17.14v119.52H95.93z" style="fill:#fff;opacity:.30000000000000004" transform="rotate(180 104.5 391.335)"/></g><path d="M95.93 331.57h17.14v119.52H95.93z" style="fill:none;stroke:#263238;stroke-linecap:round;stroke-linejoin:round;stroke-width:1.25903px" transform="rotate(180 104.5 391.335)"/><path d="M118.89 340.44h77.7v29.03h-77.7z" style="fill:#fff;stroke:#263238;stroke-linecap:round;stroke-linejoin:round;stroke-width:1.25903px" transform="rotate(180 157.745 354.955)"/><path d="M118.89 372.64h77.7v29.03h-77.7z" style="fill:#fff;stroke:#263238;stroke-linecap:round;stroke-linejoin:round;stroke-width:1.25903px" transform="rotate(180 157.745 387.15)"/><path d="M118.89 404.84h77.7v29.03h-77.7z" style="fill:#fff;stroke:#263238;stroke-linecap:round;stroke-linejoin:round;stroke-width:1.25903px" transform="rotate(180 157.745 419.35)"/><path d="M154.51 355a3.24 3.24 0 1 0 3.24-3.24 3.24 3.24 0 0 0-3.24 3.24M154.51 387.15a3.24 3.24 0 1 0 3.24-3.23 3.24 3.24 0 0 0-3.24 3.23M154.51 419.35a3.24 3.24 0 1 0 3.24-3.24 3.24 3.24 0 0 0-3.24 3.24" style="fill:#fde047;stroke:#263238;stroke-linecap:round;stroke-linejoin:round;stroke-width:1.25903px"/><path d="M502.18 108.7H472v185.06h30.18a16.64 16.64 0 0 0 16.65-16.64V125.34a16.64 16.64 0 0 0-16.65-16.64" style="fill:#263238;stroke:#263238;stroke-linecap:round;stroke-linejoin:round;stroke-width:1.25903px"/><rect width="286.71" height="185.07" x="225.82" y="108.7" rx="16.64" style="fill:#fde047;stroke:#263238;stroke-linecap:round;stroke-linejoin:round;stroke-width:1.25903px"/><rect width="11.37" height="11.37" x="483.08" y="114.97" rx="4.4" style="fill:#999;stroke:#263238;stroke-linecap:round;stroke-linejoin:round;stroke-width:1.25903px"/><g style="clip-path:url(#i)"><path d="M252.3 120.66a5.69 5.69 0 1 1-5.68-5.69 5.68 5.68 0 0 1 5.68 5.69" style="opacity:.5"/></g><path d="M252.3 120.66a5.69 5.69 0 1 1-5.68-5.69 5.68 5.68 0 0 1 5.68 5.69" style="fill:none;stroke:#263238;stroke-linecap:round;stroke-linejoin:round;stroke-width:1.25903px"/><g style="clip-path:url(#j)"><circle cx="281.95" cy="120.66" r="5.69" style="fill:#fff;stroke:#263238;stroke-linecap:round;stroke-linejoin:round;stroke-width:1.25903px;opacity:.5"/></g><circle cx="281.95" cy="120.66" r="5.69" style="fill:none;stroke:#263238;stroke-linecap:round;stroke-linejoin:round;stroke-width:1.25903px"/><circle cx="264.28" cy="120.66" r="5.69" style="fill:none;stroke:#263238;stroke-linecap:round;stroke-linejoin:round;stroke-width:1.25903px"/><rect width="271.6" height="153.59" x="233.38" y="132.62" rx="9.09" style="fill:#fde047"/><g style="clip-path:url(#k)"><rect width="271.6" height="153.59" x="233.38" y="132.62" rx="9.09" style="opacity:.30000000000000004"/></g><rect width="271.6" height="153.59" x="233.38" y="132.62" rx="9.09" style="fill:none;stroke:#263238;stroke-linecap:round;stroke-linejoin:round;stroke-width:1.25903px"/><rect width="74.32" height="141" x="239.67" y="138.91" rx="2.79" style="fill:#999;stroke:#263238;stroke-linecap:round;stroke-linejoin:round;stroke-width:1.25903px"/><rect width="83.14" height="141" x="327.17" y="138.91" rx="2.79" style="fill:#fde047"/><g style="clip-path:url(#l)"><rect width="83.14" height="141" x="327.17" y="138.91" rx="2.79" style="fill:#fff;opacity:.8"/></g><rect width="83.14" height="141" x="327.17" y="138.91" rx="2.79" style="fill:none;stroke:#263238;stroke-linecap:round;stroke-linejoin:round;stroke-width:1.25903px"/><path d="M491.91 138.91h-62.69a2.55 2.55 0 0 0-2.54 2.55v7.68h67.77v-7.68a2.55 2.55 0 0 0-2.54-2.55" style="fill:#fde047;stroke:#263238;stroke-linecap:round;stroke-linejoin:round;stroke-width:1.25903px"/><path d="M485.9 142h6.04M485.9 144.02h6.04M491.94 146.03h-6.04" style="fill:none;stroke:#263238;stroke-linecap:round;stroke-linejoin:round;stroke-width:1.25903px"/><path d="m460.57 149.14-1.57-6.37a5.08 5.08 0 0 0-4.93-3.86h-24.85a2.55 2.55 0 0 0-2.54 2.55v38.37a2.54 2.54 0 0 0 2.54 2.54h62.69a2.54 2.54 0 0 0 2.54-2.54v-30.69Z" style="fill:#999;stroke:#263238;stroke-linecap:round;stroke-linejoin:round;stroke-width:1.25903px"/><path d="M238.61 271.6h26.12c.59 0 1.06-.25 1.06-.56v-27.1c0-.31-.47-.56-1.06-.56h-26.12c-.58 0-1.06.25-1.06.56V271c0 .35.45.6 1.06.6" style="fill:#fde047"/><g style="clip-path:url(#m)"><path d="M238.61 271.6h26.12c.59 0 1.06-.25 1.06-.56v-27.1c0-.31-.47-.56-1.06-.56h-26.12c-.58 0-1.06.25-1.06.56V271c0 .35.45.6 1.06.6" style="opacity:.30000000000000004"/></g><path d="M238.61 271.6h26.12c.59 0 1.06-.25 1.06-.56v-27.1c0-.31-.47-.56-1.06-.56h-26.12c-.58 0-1.06.25-1.06.56V271c0 .35.45.6 1.06.6" style="fill:none;stroke:#263238;stroke-linecap:round;stroke-linejoin:round;stroke-width:1.25903px"/><path d="M271.31 271.6h26.12c.58 0 1.06-.25 1.06-.56v-27.1c0-.31-.48-.56-1.06-.56h-26.12c-.59 0-1.06.25-1.06.56V271c0 .35.47.6 1.06.6M251.2 238.72h26.12c.59 0 1.06-.25 1.06-.56v-27.1c0-.31-.47-.56-1.06-.56H251.2c-.58 0-1.06.25-1.06.56v27.1c0 .31.48.56 1.06.56M283.9 238.72H310c.58 0 1.06-.25 1.06-.56v-27.1c0-.31-.48-.56-1.06-.56h-26.1c-.59 0-1.06.25-1.06.56v27.1c0 .31.47.56 1.06.56" style="fill:#fde047;stroke:#263238;stroke-linecap:round;stroke-linejoin:round;stroke-width:1.25903px"/><path d="M248.68 205.84h26.12c.59 0 1.07-.25 1.07-.56v-27.1c0-.31-.48-.56-1.07-.56h-26.12c-.58 0-1.06.25-1.06.56v27.1c0 .31.48.56 1.06.56" style="fill:#fde047"/><g style="clip-path:url(#n)"><path d="M248.68 205.84h26.12c.59 0 1.07-.25 1.07-.56v-27.1c0-.31-.48-.56-1.07-.56h-26.12c-.58 0-1.06.25-1.06.56v27.1c0 .31.48.56 1.06.56" style="fill:#fff;opacity:.5"/></g><path d="M248.68 205.84h26.12c.59 0 1.07-.25 1.07-.56v-27.1c0-.31-.48-.56-1.07-.56h-26.12c-.58 0-1.06.25-1.06.56v27.1c0 .31.48.56 1.06.56" style="fill:none;stroke:#263238;stroke-linecap:round;stroke-linejoin:round;stroke-width:1.25903px"/><path d="M281.38 205.84h26.12c.59 0 1.06-.25 1.06-.56v-27.1c0-.31-.47-.56-1.06-.56h-26.12c-.59 0-1.06.25-1.06.56v27.1c0 .31.47.56 1.06.56M248.68 173h26.12c.59 0 1.07-.25 1.07-.56V145.3c0-.31-.48-.56-1.07-.56h-26.12c-.58 0-1.06.25-1.06.56v27.1c0 .31.48.6 1.06.6" style="fill:#fde047;stroke:#263238;stroke-linecap:round;stroke-linejoin:round;stroke-width:1.25903px"/><path d="M281.38 173h26.12c.59 0 1.06-.25 1.06-.56V145.3c0-.31-.47-.56-1.06-.56h-26.12c-.59 0-1.06.25-1.06.56v27.1c0 .31.47.6 1.06.6" style="fill:#fde047"/><g style="clip-path:url(#o)"><path d="M281.38 173h26.12c.59 0 1.06-.25 1.06-.56V145.3c0-.31-.47-.56-1.06-.56h-26.12c-.59 0-1.06.25-1.06.56v27.1c0 .31.47.6 1.06.6" style="fill:#fff;opacity:.7000000000000001"/></g><path d="M281.38 173h26.12c.59 0 1.06-.25 1.06-.56V145.3c0-.31-.47-.56-1.06-.56h-26.12c-.59 0-1.06.25-1.06.56v27.1c0 .31.47.6 1.06.6" style="fill:none;stroke:#263238;stroke-linecap:round;stroke-linejoin:round;stroke-width:1.25903px"/><path d="M486.37 247h-62.68a2.57 2.57 0 0 0-2.55 2.55V288a2.55 2.55 0 0 0 2.55 2.55h62.68a2.56 2.56 0 0 0 2.55-2.55v-38.42a2.56 2.56 0 0 0-2.55-2.58" style="fill:#263238;stroke:#263238;stroke-linecap:round;stroke-linejoin:round;stroke-width:1.25903px"/><path d="M482.15 245.78h-62.68a2.55 2.55 0 0 0-2.55 2.54V256h67.78v-7.68a2.55 2.55 0 0 0-2.55-2.54" style="fill:#fde047;stroke:#263238;stroke-linecap:round;stroke-linejoin:round;stroke-width:1.25903px"/><path d="M476.14 248.88h6.04M476.14 250.89h6.04M482.18 252.9h-6.04" style="fill:none;stroke:#263238;stroke-linecap:round;stroke-linejoin:round;stroke-width:1.25903px"/><path d="m450.81 256-1.56-6.36a5.08 5.08 0 0 0-4.93-3.86h-24.85a2.55 2.55 0 0 0-2.55 2.54v38.37a2.56 2.56 0 0 0 2.55 2.55h62.68a2.55 2.55 0 0 0 2.55-2.55V256Z" style="fill:#999;stroke:#263238;stroke-linecap:round;stroke-linejoin:round;stroke-width:1.25903px"/><path d="M483.84 188.92h-62.69A2.55 2.55 0 0 0 419 190a2.6 2.6 0 0 0-.43 1.43v38.36a2.55 2.55 0 0 0 2.54 2.55h62.69a2.55 2.55 0 0 0 2.54-2.55v-38.32a2.55 2.55 0 0 0-2.5-2.55" style="fill:#263238;stroke:#263238;stroke-linecap:round;stroke-linejoin:round;stroke-width:1.25903px"/><path d="M482.15 187.08h-62.68a2.55 2.55 0 0 0-2.55 2.54v7.68h67.78v-7.68a2.55 2.55 0 0 0-2.55-2.54" style="fill:#fde047;stroke:#263238;stroke-linecap:round;stroke-linejoin:round;stroke-width:1.25903px"/><path d="M476.14 190.18h6.04M476.14 192.19h6.04M482.18 194.2h-6.04" style="fill:none;stroke:#263238;stroke-linecap:round;stroke-linejoin:round;stroke-width:1.25903px"/><path d="m450.81 197.3-1.56-6.36a5.08 5.08 0 0 0-4.93-3.86h-24.85a2.55 2.55 0 0 0-2.55 2.54V228a2.55 2.55 0 0 0 2.55 2.55h62.68a2.55 2.55 0 0 0 2.55-2.55v-30.7Z" style="fill:#999;stroke:#263238;stroke-linecap:round;stroke-linejoin:round;stroke-width:1.25903px"/><path d="M247.15 305.3h26.12c.59 0 1.06-.25 1.06-.56v-27.1c0-.31-.47-.56-1.06-.56h-26.12c-.58 0-1.06.25-1.06.56v27.1c0 .31.48.56 1.06.56M448.27 279.58h-62.69a2.55 2.55 0 0 0-2.55 2.55v7.67h67.78v-7.67a2.55 2.55 0 0 0-2.54-2.55" style="fill:#fde047;stroke:#263238;stroke-linecap:round;stroke-linejoin:round;stroke-width:1.25903px"/><path d="M442.25 282.68h6.04M442.25 284.69h6.04M448.29 286.7h-6.04" style="fill:none;stroke:#263238;stroke-linecap:round;stroke-linejoin:round;stroke-width:1.25903px"/><path d="m416.92 289.8-1.56-6.36a5.08 5.08 0 0 0-4.93-3.86h-24.85a2.55 2.55 0 0 0-2.55 2.55v38.36a2.55 2.55 0 0 0 2.55 2.55h62.69a2.55 2.55 0 0 0 2.54-2.55V289.8Z" style="fill:#999;stroke:#263238;stroke-linecap:round;stroke-linejoin:round;stroke-width:1.25903px"/><path d="M494.45 101.53h4.72M476.14 101.53h12.78M338.66 101.53h126.32M324.39 101.53h7.55" style="fill:none;stroke:#263238;stroke-linecap:round;stroke-linejoin:round;stroke-width:1.25903px"/><path d="M395.7 254.8c.08-1 .13-2 .13-3s-.05-2-.13-3l-9.3-1.2a30.4 30.4 0 0 0-3.27-10.1L390 231a40 40 0 0 0-3.58-4.91l-8.24 4.49a30.7 30.7 0 0 0-8.58-6.25l1.73-9.22a39 39 0 0 0-5.78-1.87l-4 8.48a30.2 30.2 0 0 0-10.61 0l-4-8.48a39 39 0 0 0-5.78 1.87l1.73 9.22a30.7 30.7 0 0 0-8.58 6.25l-8.31-4.51a39 39 0 0 0-3.6 4.93l6.82 6.44a30.2 30.2 0 0 0-3.28 10.1l-9.3 1.2c-.08 1-.13 2-.13 3s.05 2 .13 3l9.3 1.21a30.2 30.2 0 0 0 3.28 10.09l-6.82 6.45a39 39 0 0 0 3.57 4.91l8.24-4.5a30.5 30.5 0 0 0 8.58 6.25l-1.73 9.22a39 39 0 0 0 5.78 1.88l4-8.49a30.2 30.2 0 0 0 10.61 0l4 8.49a39 39 0 0 0 5.78-1.88l-1.73-9.22a30.5 30.5 0 0 0 8.58-6.25l8.24 4.5a40 40 0 0 0 3.58-4.91l-6.82-6.45A30.4 30.4 0 0 0 386.4 256Zm-39.53-25.7a22.61 22.61 0 0 1 17.94 8.9l-14.58 6.73a7.81 7.81 0 0 0-6.72 0L338.23 238a22.63 22.63 0 0 1 17.94-8.9m-22.66 22.66a22.6 22.6 0 0 1 1.67-8.53l13.19 9.3a7.83 7.83 0 0 0 3.28 5.63l1.46 16a22.64 22.64 0 0 1-19.6-22.4m25.72 22.43 1.46-16a7.79 7.79 0 0 0 3.28-5.63l13.19-9.3a22.63 22.63 0 0 1-17.93 31Z" style="fill:#263238;stroke:#263238;stroke-linecap:round;stroke-linejoin:round;stroke-width:1.25903px"/><path d="M359.47 251.76a3.3 3.3 0 1 1-3.3-3.29 3.3 3.3 0 0 1 3.3 3.29" style="fill:#fff;stroke:#263238;stroke-linecap:round;stroke-linejoin:round;stroke-width:1.25903px"/><path d="M395.57 186.43c.06-.72.09-1.44.09-2.18s0-1.45-.09-2.17l-6.65-.86a21.6 21.6 0 0 0-2.34-7.22l4.88-4.61a29 29 0 0 0-2.56-3.51l-5.9 3.22a21.7 21.7 0 0 0-6.14-4.47l1.24-6.6a29 29 0 0 0-4.1-1.33l-2.88 6.06a21.4 21.4 0 0 0-7.59 0l-2.87-6.06a28.6 28.6 0 0 0-4.16 1.3l1.24 6.6a21.7 21.7 0 0 0-6.13 4.47l-5.89-3.22a27.6 27.6 0 0 0-2.56 3.51L348 174a21.9 21.9 0 0 0-2.34 7.22l-6.65.86c-.05.72-.09 1.44-.09 2.17s0 1.46.09 2.18l6.65.86a21.9 21.9 0 0 0 2.34 7.22l-4.87 4.61a28 28 0 0 0 2.56 3.5l5.89-3.21a22.1 22.1 0 0 0 6.13 4.47l-1.24 6.59a27.4 27.4 0 0 0 4.14 1.34l2.87-6.06a22 22 0 0 0 7.59 0l2.88 6.06a27.7 27.7 0 0 0 4.13-1.34l-1.24-6.59a22.1 22.1 0 0 0 6.14-4.47l5.89 3.21a29 29 0 0 0 2.56-3.5l-4.88-4.61a21.6 21.6 0 0 0 2.34-7.22Zm-28.26-18.38a16.16 16.16 0 0 1 12.82 6.33l-10.42 4.81a5.6 5.6 0 0 0-4.8 0l-10.43-4.81a16.17 16.17 0 0 1 12.83-6.33m-16.21 16.2a16.1 16.1 0 0 1 1.2-6.1l9.43 6.65a5.56 5.56 0 0 0 2.35 4l1 11.46a16.2 16.2 0 0 1-13.98-16.01m18.39 16 1.05-11.46a5.62 5.62 0 0 0 2.35-4l9.42-6.65a16.17 16.17 0 0 1-12.82 22.14Z" style="fill:#757575;stroke:#263238;stroke-linecap:round;stroke-linejoin:round;stroke-width:1.25903px"/><circle cx="367.31" cy="184.25" r="2.36" style="fill:#fff;stroke:#263238;stroke-linecap:round;stroke-linejoin:round;stroke-width:1.25903px"/><path d="M323.07 281.23c0-.48.07-1 .07-1.44s0-1-.07-1.45l-4.43-.58a14.3 14.3 0 0 0-1.56-4.81l3.25-3.07a19 19 0 0 0-1.7-2.34l-3.93 2.14a14.7 14.7 0 0 0-4.09-3l.82-4.39a18 18 0 0 0-2.75-.9l-1.92 4a14 14 0 0 0-2.53-.23 14 14 0 0 0-2.53.23l-1.91-4a18.6 18.6 0 0 0-2.76.9l.83 4.39a14.6 14.6 0 0 0-4.09 3l-3.93-2.14a18 18 0 0 0-1.7 2.34l3.25 3.07a14.3 14.3 0 0 0-1.57 4.81l-4.43.58c0 .48-.06 1-.06 1.45s0 1 .06 1.44l4.43.58a14.3 14.3 0 0 0 1.57 4.81l-3.26 3.07a19 19 0 0 0 1.71 2.34l3.93-2.14a14.4 14.4 0 0 0 4.09 3l-.83 4.39a18.6 18.6 0 0 0 2.76.9l1.91-4.05a14 14 0 0 0 2.53.23 14 14 0 0 0 2.53-.23l1.92 4.05a18 18 0 0 0 2.75-.9l-.82-4.39a14.5 14.5 0 0 0 4.09-3l3.93 2.14a19 19 0 0 0 1.7-2.34l-3.25-3.07a14.3 14.3 0 0 0 1.56-4.81ZM304.23 269a10.76 10.76 0 0 1 8.55 4.22l-6.95 3.21a3.7 3.7 0 0 0-1.6-.36 3.75 3.75 0 0 0-1.6.36l-6.95-3.21a10.79 10.79 0 0 1 8.55-4.22m-10.8 10.81a10.8 10.8 0 0 1 .8-4.07l6.28 4.43a3.76 3.76 0 0 0 1.57 2.69l.7 7.64a10.8 10.8 0 0 1-9.35-10.71Zm12.26 10.69.7-7.64a3.75 3.75 0 0 0 1.56-2.69l6.29-4.43a10.8 10.8 0 0 1-8.55 14.76" style="fill:#fff;stroke:#263238;stroke-linecap:round;stroke-linejoin:round;stroke-width:1.25903px"/><path d="M305.8 279.79a1.57 1.57 0 1 1-1.57-1.57 1.57 1.57 0 0 1 1.57 1.57" style="fill:none;stroke:#263238;stroke-linecap:round;stroke-linejoin:round;stroke-width:1.25903px"/><path d="m185.84 288.76 46.45-3.84-24.22 96.3-36.65 57.5-14.78-7.72s17.22-42.36 29.81-57.89c0 0 2.68-30.75 5.12-46.85 0 0-4.57-22.49-5.73-37.5" style="fill:#858585"/><g style="clip-path:url(#p)"><path d="M218.11 286.09 198 287.75s-1.6 20.83 13.82 36.68l7.18 13.31 7.15-28.44Z" style="fill:#263238;stroke:#263238;stroke-linecap:round;stroke-linejoin:round;stroke-width:1.25903px"/></g><path d="m185.84 288.76 46.45-3.84-24.22 96.3-36.65 57.5-14.78-7.72s17.22-42.36 29.81-57.89c0 0 2.68-30.75 5.12-46.85 0 0-4.57-22.49-5.73-37.5" style="fill:none;stroke:#263238;stroke-linecap:round;stroke-linejoin:round;stroke-width:1.25903px"/><path d="M186 380.05a10.5 10.5 0 0 0-2.37 1.77M189.6 372.69s9.06-1.58 10.93 4.72c1.47 4.93-5.13.29-11.65 1.62" style="fill:none;stroke:#263238;stroke-linecap:round;stroke-linejoin:round;stroke-width:1.25903px"/><path d="m200.54 288.69 37.12-5.39 24.22 76.14L282.14 428l-16.66 6.5s-19.62-42.42-24.14-65.53c0 0-18.11-30.84-24.54-45.65a44.73 44.73 0 0 1-16.26-34.63" style="fill:#999;stroke:#263238;stroke-linecap:round;stroke-linejoin:round;stroke-width:1.25903px"/><path d="M234.83 322.71a9.65 9.65 0 0 1 4.5 1.72M231.36 313.93c-2.68 2.27-13.43 3.17-10.91 7.56 1.5 2.61 5.68 1.51 10.15 1.18M243.82 367.34s5.48-3.47 9.89 0" style="fill:none;stroke:#263238;stroke-linecap:round;stroke-linejoin:round;stroke-width:1.25903px"/><path d="m176.17 461.42-31.94-18.1.88-2.09 1.27.38s2.07-3 7.21-9.28a43.8 43.8 0 0 1 6.33-12.45s20.27 6.43 17 14.07l-4.33 7.55a103 103 0 0 0 6.5 9.69s4.76 3.06 6 3.32a4 4 0 0 1 3.25 5.08l1.23.26-.78 2.18Z" style="fill:#fde047;stroke:#263238;stroke-linecap:round;stroke-linejoin:round;stroke-width:1.25903px"/><path d="M167 422.71a64 64 0 0 0-7.1-2.83 43.8 43.8 0 0 0-6.33 12.45c8.55 5.3 13.43-9.62 13.43-9.62" style="fill:#fde047"/><g style="clip-path:url(#q)"><path d="M167 422.71a64 64 0 0 0-7.1-2.83 43.8 43.8 0 0 0-6.33 12.45c8.55 5.3 13.43-9.62 13.43-9.62" style="opacity:.5"/></g><path d="M167 422.71a64 64 0 0 0-7.1-2.83 43.8 43.8 0 0 0-6.33 12.45c8.55 5.3 13.43-9.62 13.43-9.62M173.71 443.21a5.1 5.1 0 0 1-4.71 2.2M175.52 445.93s-.47 2.19-3.9 3.15M177.35 448.67s.61 2.14-3.08 4.12M179.84 458.8l6.2.45M152.25 444.95l24.06 13.59 2.17-2.76M148.58 442.88l1.66.94" style="fill:none;stroke:#263238;stroke-linecap:round;stroke-linejoin:round;stroke-width:1.25903px"/><path d="M262.84 432.11s18-11.28 21.76-3.87l2.94 8.19s14.48 2.2 18.89 1.25a4 4 0 0 1 5 3.31l1.23-.26.18 2.31-42.33 16.21-1-2 1.11-.72s-.91-3.5-2.4-11.51a43.7 43.7 0 0 1-5.38-12.91" style="fill:#fde047;stroke:#263238;stroke-linecap:round;stroke-linejoin:round;stroke-width:1.25903px"/><path d="M269.59 428.54a64 64 0 0 0-6.75 3.57 43.7 43.7 0 0 0 5.39 12.89c9.56-3.07 1.36-16.46 1.36-16.46" style="fill:#fde047"/><g style="clip-path:url(#r)"><path d="M269.59 428.54a64 64 0 0 0-6.75 3.57 43.7 43.7 0 0 0 5.39 12.89c9.56-3.07 1.36-16.46 1.36-16.46" style="opacity:.5"/></g><path d="M269.59 428.54a64 64 0 0 0-6.75 3.57 43.7 43.7 0 0 0 5.39 12.89c9.56-3.07 1.36-16.46 1.36-16.46M307.76 442.48l1.98-.76M280.68 452.84l24.57-9.4M272.36 456.02l3.51-1.34M289.55 436.71a5.09 5.09 0 0 1-1.38 5M292.79 437.09s1.36 1.78-.12 5M296.07 437.47s2 .92 1.14 5" style="fill:none;stroke:#263238;stroke-linecap:round;stroke-linejoin:round;stroke-width:1.25903px"/><path d="M174.7 185.51a30.33 30.33 0 0 0-6.92 15c-1.57 9.44-9 29.57-6.61 31.07s24.87 18 24.87 18l9.86-9.13-14-17.84 6.94-30.32Z" style="fill:#fde047"/><g style="clip-path:url(#s)"><path d="M174.7 185.51a30.33 30.33 0 0 0-6.92 15c-1.57 9.44-9 29.57-6.61 31.07s24.87 18 24.87 18l9.86-9.13-14-17.84 6.94-30.32Z" style="opacity:.30000000000000004"/></g><path d="M174.7 185.51a30.33 30.33 0 0 0-6.92 15c-1.57 9.44-9 29.57-6.61 31.07s24.87 18 24.87 18l9.86-9.13-14-17.84 6.94-30.32Z" style="fill:none;stroke:#263238;stroke-linecap:round;stroke-linejoin:round;stroke-width:1.25903px"/><path d="M165.21 227.61a11.53 11.53 0 0 1 11.53-2.61" style="fill:none;stroke:#263238;stroke-linecap:round;stroke-linejoin:round;stroke-width:1.25903px"/><path d="M144.62 272.55a21 21 0 0 0 34.9-10.89l161.9-55.87a21 21 0 0 0 34.19-12.95v-2.52L360 195.71l-8.16-7.09 1.75-9 15.61-5.38v-2.52a21 21 0 0 0-34.91 10.89l-161.9 55.87a21 21 0 0 0-34.19 12.95V254l15.61-5.39 8.16 7.08-1.74 9-15.61 5.31Z" style="fill:#cbf2d6;stroke:#263238;stroke-linecap:round;stroke-linejoin:round;stroke-width:1.25903px"/><path d="m351.43 188.26 2.16-11.14 15.61-5.39a21 21 0 0 0-34.91 10.89l-161.9 55.87a21 21 0 0 0-34.19 12.95l15.61-5.38 8.58 7.44-2.16 11.15-15.61 5.35a21 21 0 0 0 34.9-10.89l161.9-55.87a21 21 0 0 0 34.19-13L360 195.71Z" style="fill:#858585;stroke:#263238;stroke-linecap:round;stroke-linejoin:round;stroke-width:1.25903px"/><path d="M229 153.44s-3.13-6.22-3.59-8.48c-.33-1.6.32-4.94 0-6.54-.77-3.75-6-14.08-6-14.08a2.9 2.9 0 0 0-.94-1.11l-3.12 3.77H207l-12.74 16.84 6.27 15.16-1.84 2.18c1.13 1.11 1.84 1.75 1.84 1.75l-1.84 11 18 1.82.47-7h5.47a2.79 2.79 0 0 0 2.78-2.78v-9.53l2.51-.71a1.67 1.67 0 0 0 1.08-2.29" style="fill:#fff;stroke:#263238;stroke-linecap:round;stroke-linejoin:round;stroke-width:1.25903px"/><path d="m200.53 162.9 3.06-6s-6.6-2.35-5.23-8.25 6.88-.89 6.88-.89H207l1.56-6.82s3.83-4.11 3.56-5.55a25 25 0 0 0-.82-3.09s12.38-1.89 10.77-9.17-18.22-4.52-18.22-4.52-4.9-8.74-17.49 8.25c0 0-9.18 5.24-2.47 16.24a100.3 100.3 0 0 0 16.64 19.8" style="fill:#263238;stroke:#263238;stroke-linecap:round;stroke-linejoin:round;stroke-width:1.25903px"/><path d="M207 134.26s-9.62 19.2-17.81 20.62l-2.67-3.62s.47-3.07 5.66-3.5c0 0 4.9-2.16 10.7-12.37Z" style="fill:#858585;stroke:#263238;stroke-linecap:round;stroke-linejoin:round;stroke-width:1.25903px"/><path d="M216.66 154.88a6.21 6.21 0 0 0 5.4 2" style="fill:none;stroke:#263238;stroke-linecap:round;stroke-linejoin:round;stroke-width:1.25903px"/><path d="M222.06 143.1c0 .85-.33 1.55-.73 1.55s-.72-.7-.72-1.55.33-1.55.72-1.55.73.69.73 1.55" style="fill:#263238"/><path d="M222.06 137.22a4.32 4.32 0 0 0-4.93 2.61" style="fill:none;stroke:#263238;stroke-linecap:round;stroke-linejoin:round;stroke-width:1.25903px"/><path d="M186.33 148.09a1.66 1.66 0 0 1-2.8-.23c-3.18-6.09-9.7-22.45 7.79-30.53 20.79-9.6 31.93 3.48 31.93 3.48l5.53.59 1.47 2.57-41.6 21.03Z" style="fill:#fde047;stroke:#263238;stroke-linecap:round;stroke-linejoin:round;stroke-width:1.25903px"/><path d="M191.16 176.91a10.87 10.87 0 0 1 9.37-6c6.91-.32 17.52.63 20.24 7.24 0 0 14.91 4.31 18.35 14.9s-1.46 59.38-1.46 59.38 4.4 19.52 1.67 32.53c0 0-15.1 5.18-56 6 0 0-3-25.27-1.29-34.24 0 0-11.93-63.09-7.32-71.28s16.44-8.53 16.44-8.53Z" style="fill:#263238;stroke:#263238;stroke-miterlimit:10;stroke-width:1.25903px"/><path d="M198.94 224.32c-12.21-.28-18.55 2.73-21.56 5 .6 4 1.21 7.82 1.79 11.29 1.88-1.56 6.83-3.29 19.46-3.54a130.5 130.5 0 0 1 39.92 5.53c.28-3.39.59-7.42.87-11.71-6.83-1.82-25.18-6.23-40.48-6.57M237.66 252.45s.09-.93.24-2.56c-5.72-1.43-21.83-5.1-37.28-5.45-12.68-.29-17.94 2.43-20.06 4.3.87 4.94 1.46 8.05 1.46 8.05-.12.61-.21 1.3-.29 2 2.4-1.38 7.57-2.72 18.58-2.94a131.2 131.2 0 0 1 38.86 5.21c-.71-5.06-1.51-8.61-1.51-8.61" style="fill:#fde047;stroke:#263238;stroke-linecap:round;stroke-linejoin:round;stroke-width:1.25903px"/><path d="M214 177.24c.86.21 1.73.45 2.62.72M195.9 176.07a46.4 46.4 0 0 1 15.39.57" style="fill:none;stroke:#7f7f7f;stroke-linecap:round;stroke-linejoin:round;stroke-width:.9442689999999999px"/><path d="M225.54 217a51.9 51.9 0 0 1 5.06-26.31c6.64-14 12 14.18 12 14.18s7.61 12 9.44 20.58c0 0 6.53-6.35 33.3-8.45l3.14 11.26s-36.89 18.12-44.66 16.74c-5.75-.94-18.28-28-18.28-28" style="fill:#fde047;stroke:#263238;stroke-linecap:round;stroke-linejoin:round;stroke-width:1.25903px"/><path d="M238.76 221a18 18 0 0 0 .28 3.34M231.88 217s5.38-11.8 8.2-11c2 .59-.14 5.28-1 11" style="fill:none;stroke:#263238;stroke-linecap:round;stroke-linejoin:round;stroke-width:1.25903px"/><path d="M282.14 215.9s4.33 7.52 4.12 15.37l5.25-2.85s-.52-9.57-4.19-12.79Z" style="fill:#263238;stroke:#263238;stroke-linecap:round;stroke-linejoin:round;stroke-width:1.25903px"/><path d="m286.26 217.3 8.58-1.4a8 8 0 0 1 7.31-4.48 24.2 24.2 0 0 0 8.63-1.32.53.53 0 0 1 .73.51c0 1.22-.92 3.55-6.91 4.09 0 0 5.41 3.29 6.91 2a3 3 0 0 1 3.06-.69s.18 4.21-2.8 4.38c0 0-.7 2.73-3 2.68 0 0-1.58 2.22-2.8 1.87a8.9 8.9 0 0 1-3.68 0c-2.27-.39-4.72-.88-4.72-.88l-8 2.5Z" style="fill:#263238;stroke:#263238;stroke-linecap:round;stroke-linejoin:round;stroke-width:1.25903px"/><path d="M310.78 218.31s.11 1.72-1.15 2 .32 1.79-4 3.1" style="fill:none;stroke:#7f7f7f;stroke-linecap:round;stroke-linejoin:round;stroke-width:.9442689999999999px"/><path d="M252.13 228.87a21.8 21.8 0 0 1-.84 6.79" style="fill:none;stroke:#263238;stroke-linecap:round;stroke-linejoin:round;stroke-width:1.25903px"/><path d="M290.45 221.77a17.6 17.6 0 0 0-1.74-4.42M291.07 224.72c-.08-.48-.17-1-.28-1.49" style="fill:none;stroke:#7f7f7f;stroke-linecap:round;stroke-linejoin:round;stroke-width:.9442689999999999px"/></svg>